<?xml version="1.0" encoding="utf-8"?>
<!-- Generator: Adobe Illustrator 25.2.3, SVG Export Plug-In . SVG Version: 6.00 Build 0)  -->
<svg version="1.1" id="레이어_1" xmlns="http://www.w3.org/2000/svg" xmlns:xlink="http://www.w3.org/1999/xlink" x="0px"
	 y="0px" viewBox="0 0 150 150" style="enable-background:new 0 0 150 150;" xml:space="preserve">
<style type="text/css">
	.st0{fill:#6263DD;}
	.st1{fill:#7E7CE5;}
	.st2{fill:#C2CAED;}
	.st3{fill:#FFFFFF;}
	.st4{fill:#A19EFF;}
	.st5{fill:#FFE085;}
	.st6{fill:#E089C6;}
	.st7{fill:#D66AB4;}
	.st8{fill:#D67EB4;}
	.st9{clip-path:url(#SVGID_2_);}
	.st10{clip-path:url(#SVGID_4_);}
	.st11{opacity:0.5;clip-path:url(#SVGID_6_);}
	.st12{clip-path:url(#SVGID_8_);}
	.st13{clip-path:url(#SVGID_10_);}
	.st14{clip-path:url(#SVGID_12_);fill:#6263DD;}
	.st15{clip-path:url(#SVGID_14_);fill:#6263DD;}
	.st16{clip-path:url(#SVGID_16_);fill:#7E7CE5;}
	.st17{clip-path:url(#SVGID_18_);fill:#C2CAED;}
	.st18{clip-path:url(#SVGID_20_);fill:#FFFFFF;}
	.st19{clip-path:url(#SVGID_22_);fill:#6263DD;}
	.st20{clip-path:url(#SVGID_24_);fill:#A19EFF;}
	.st21{clip-path:url(#SVGID_26_);fill:#7E7CE5;}
	.st22{clip-path:url(#SVGID_28_);fill:#A19EFF;}
	.st23{clip-path:url(#SVGID_30_);fill:#A19EFF;}
	.st24{clip-path:url(#SVGID_32_);fill:#FFE085;}
	.st25{clip-path:url(#SVGID_34_);fill:#A19EFF;}
	.st26{clip-path:url(#SVGID_36_);fill:#E089C6;}
	.st27{opacity:0.5;clip-path:url(#SVGID_38_);}
	.st28{clip-path:url(#SVGID_40_);}
	.st29{clip-path:url(#SVGID_42_);}
	.st30{clip-path:url(#SVGID_44_);fill:#FFFFFF;}
	.st31{clip-path:url(#SVGID_46_);fill:#FFE085;}
	.st32{clip-path:url(#SVGID_48_);fill:#FFE085;}
	.st33{clip-path:url(#SVGID_50_);fill:#FFE085;}
	.st34{clip-path:url(#SVGID_52_);fill:#FFE085;}
	.st35{clip-path:url(#SVGID_54_);fill:#A19EFF;}
	.st36{clip-path:url(#SVGID_56_);fill:#E089C6;}
	.st37{opacity:0.5;clip-path:url(#SVGID_58_);}
	.st38{clip-path:url(#SVGID_60_);}
	.st39{clip-path:url(#SVGID_62_);}
	.st40{clip-path:url(#SVGID_64_);fill:#D66AB4;}
	.st41{clip-path:url(#SVGID_66_);fill:#D67EB4;}
	.st42{opacity:0.5;clip-path:url(#SVGID_68_);}
	.st43{clip-path:url(#SVGID_70_);}
	.st44{clip-path:url(#SVGID_72_);}
	.st45{clip-path:url(#SVGID_74_);fill:#E089C6;}
	.st46{opacity:0.5;clip-path:url(#SVGID_76_);}
	.st47{clip-path:url(#SVGID_78_);}
	.st48{clip-path:url(#SVGID_80_);}
	.st49{clip-path:url(#SVGID_82_);fill:#6263DD;}
	.st50{clip-path:url(#SVGID_84_);fill:#7E7CE5;}
	.st51{opacity:0.5;clip-path:url(#SVGID_86_);}
	.st52{clip-path:url(#SVGID_88_);}
	.st53{clip-path:url(#SVGID_90_);}
	.st54{clip-path:url(#SVGID_92_);fill:#A19EFF;}
	.st55{opacity:0.5;clip-path:url(#SVGID_94_);}
	.st56{clip-path:url(#SVGID_96_);}
	.st57{clip-path:url(#SVGID_98_);}
	.st58{clip-path:url(#SVGID_100_);fill:#D66AB4;}
	.st59{clip-path:url(#SVGID_102_);fill:#D67EB4;}
	.st60{opacity:0.5;clip-path:url(#SVGID_104_);}
	.st61{clip-path:url(#SVGID_106_);}
	.st62{clip-path:url(#SVGID_108_);}
	.st63{clip-path:url(#SVGID_110_);fill:#E089C6;}
	.st64{opacity:0.5;clip-path:url(#SVGID_112_);}
	.st65{clip-path:url(#SVGID_114_);}
	.st66{clip-path:url(#SVGID_116_);}
	.st67{clip-path:url(#SVGID_118_);fill:#6263DD;}
	.st68{clip-path:url(#SVGID_120_);fill:#7E7CE5;}
	.st69{opacity:0.5;clip-path:url(#SVGID_122_);}
	.st70{clip-path:url(#SVGID_124_);}
	.st71{clip-path:url(#SVGID_126_);}
	.st72{clip-path:url(#SVGID_128_);fill:#A19EFF;}
	.st73{opacity:0.3;clip-path:url(#SVGID_130_);}
	.st74{clip-path:url(#SVGID_132_);}
	.st75{clip-path:url(#SVGID_134_);}
	.st76{clip-path:url(#SVGID_136_);fill:#FFE085;}
</style>
<g>
	<g>
		<g>
			<path class="st0" d="M118.9,135.4c0.1-0.1,0.2-0.2,0.3-0.3c0-0.1,0.1-0.2,0.1-0.2c0.1-0.1,0.1-0.2,0.2-0.4c0-0.1,0.1-0.2,0.1-0.3
				s0.1-0.3,0.1-0.4c0-0.1,0-0.2,0.1-0.3c0-0.1,0-0.3,0-0.4c0-0.1,0-0.2,0-0.3c0-0.2,0-0.3-0.1-0.5c0-0.1,0-0.1,0-0.2
				c0-0.2-0.1-0.5-0.2-0.7l0,0v-0.1c-0.1-0.2-0.1-0.3-0.2-0.5l-0.1-0.2L86.8,91.1l-7.5,4.1l32.4,39.5c0.1,0.2,0.2,0.4,0.3,0.7v0.1
				c0.1,0.2,0.2,0.5,0.2,0.7c0,0.1,0,0.1,0,0.2c0,0.2,0,0.4,0.1,0.5c0,0.1,0,0.2,0,0.3c0,0.2,0,0.3,0,0.4c0,0.1,0,0.2-0.1,0.3
				c0,0.1-0.1,0.3-0.1,0.4c0,0.1-0.1,0.2-0.1,0.3c-0.1,0.1-0.1,0.3-0.2,0.4c0,0.1-0.1,0.2-0.1,0.2c-0.1,0.1-0.2,0.2-0.3,0.3
				s-0.1,0.1-0.1,0.2c-0.2,0.2-0.3,0.3-0.5,0.4l-0.1,0.1l7.5-4.1l0.1-0.1c0.2-0.1,0.4-0.3,0.5-0.4
				C118.8,135.4,118.8,135.4,118.9,135.4z"/>
			<path class="st0" d="M82.5,131.4v-1.1l-0.1-33l-7.5,4.1l0.1,28.9h-1.7v7.2h4.4C81.2,136.6,82.2,133.6,82.5,131.4z"/>
			<path class="st1" d="M124.2,95.2c0-0.1,0-0.1-0.1-0.2c0-0.2-0.1-0.3-0.1-0.5l0,0c0,0,0,0,0-0.1c-0.1-0.2-0.1-0.4-0.2-0.5
				c0,0,0,0,0-0.1s-0.1-0.1-0.1-0.2s-0.1-0.2-0.2-0.2c0-0.1-0.1-0.1-0.2-0.2l-0.1-0.1c0,0,0-0.1-0.1-0.1c-0.1-0.1-0.2-0.2-0.4-0.4
				l0,0c0,0-0.1,0-0.1-0.1c-0.1-0.1-0.2-0.2-0.3-0.2c0,0-0.1,0-0.1-0.1c-0.1-0.1-0.2-0.1-0.2-0.1c-0.1,0-0.1-0.1-0.2-0.1
				c-0.1,0-0.1-0.1-0.2-0.1c-0.1,0-0.1,0-0.2-0.1c-0.2-0.1-0.4-0.1-0.6-0.2l-1.7-0.2L38.3,80l-1.6-0.2c-0.7-0.1-1.3,0-1.9,0.3
				c-2.5,1.4-5,2.7-7.5,4.1c0.5-0.3,1.2-0.4,1.9-0.3l1.6,0.2l80.8,11.4l1.7,0.2c0.2,0,0.4,0.1,0.6,0.2c0.1,0,0.1,0,0.2,0.1
				c0.1,0.1,0.3,0.1,0.4,0.2c0.1,0,0.2,0.1,0.3,0.2c0.1,0.1,0.3,0.2,0.4,0.3l0.1,0.1c0.2,0.1,0.3,0.3,0.5,0.5l0.1,0.1
				c0.1,0.1,0.2,0.3,0.3,0.5l0.1,0.1c0.1,0.2,0.2,0.4,0.3,0.6l0,0c0.1,0.2,0.1,0.4,0.2,0.6v0.1c0,0.3,0.1,0.5,0.1,0.8
				c0,1.3-0.6,2.4-1.6,3c2.5-1.4,5-2.7,7.5-4.1c1-0.5,1.6-1.6,1.6-3C124.4,95.7,124.4,95.5,124.2,95.2z"/>
			<polygon class="st2" points="111.8,95.4 119.2,91.2 119.2,27.7 111.6,31.8 			"/>
			<polygon class="st3" points="30.8,20.4 31,84 111.8,95.4 111.6,31.8 			"/>
			<path class="st0" d="M67.6,100.4l-30.5,28.3c-0.3,0.4-0.7,0.7-1.1,1l7.6-4.1c0.4-0.2,0.8-0.5,1.1-1l30.5-28.3L67.6,100.4z"/>
			<path class="st4" d="M63.2,93L31,123.4c-1.1,1.6-0.7,4.2,1,5.6c0.6,0.6,1.4,0.9,2.1,1c1.2,0.2,2.3-0.3,3-1.3l30.5-28.3l0.1,33
				c0,2.2,1.6,4.2,3.7,4.5c2,0.3,3.7-1.2,3.7-3.4l-0.1-33l30.6,36.9c0.7,1.2,1.8,2,3,2.1c0.7,0.1,1.4,0,2.1-0.4
				c1.7-1,2.1-3.4,0.9-5.4L79.1,95.2L63.2,93z"/>
			<path class="st1" d="M124.2,25c0-0.1-0.1-0.2-0.1-0.3s-0.1-0.3-0.1-0.4l0,0v-0.1c-0.1-0.2-0.1-0.3-0.2-0.5c0,0,0,0,0-0.1
				s-0.1-0.1-0.1-0.2c0-0.1-0.1-0.2-0.2-0.2c0-0.1-0.1-0.1-0.2-0.2l-0.1-0.1c0,0,0-0.1-0.1-0.1c-0.1-0.1-0.2-0.3-0.4-0.4l0,0
				l-0.1-0.1c-0.1-0.1-0.2-0.2-0.3-0.2c0,0-0.1,0-0.1-0.1c-0.1-0.1-0.2-0.1-0.3-0.1s-0.1-0.1-0.2-0.1c-0.1,0-0.1-0.1-0.2-0.1
				c-0.1,0-0.1,0-0.2-0.1c-0.2-0.1-0.4-0.1-0.6-0.2l-84-11.8c-0.2,0-0.4,0-0.6,0c-0.1,0-0.1,0-0.2,0s-0.3,0-0.4,0.1h-0.1h-0.1
				c-0.1,0-0.3,0.1-0.4,0.1h-0.1l-0.1,0.1l-7.5,4.1c0.1,0,0.1-0.1,0.2-0.1c0.1,0,0.2-0.1,0.4-0.1c0.1,0,0.1,0,0.2,0
				c0.1,0,0.2,0,0.4-0.1c0.1,0,0.1,0,0.2,0c0.2,0,0.4,0,0.6,0l84.1,11.8c0.2,0,0.4,0.1,0.6,0.2c0.1,0,0.1,0,0.2,0.1
				c0.1,0.1,0.3,0.1,0.4,0.2c0.1,0,0.2,0.1,0.3,0.1c0.1,0.1,0.3,0.2,0.4,0.3c0,0,0.1,0,0.1,0.1c0.2,0.1,0.3,0.3,0.5,0.5L116,27
				c0.1,0.1,0.2,0.3,0.3,0.4l0.1,0.1c0.1,0.2,0.2,0.4,0.3,0.6c0,0,0,0,0,0.1c0.1,0.2,0.1,0.4,0.2,0.6c0,0.1,0,0.1,0,0.1
				c0,0.3,0.1,0.5,0.1,0.8c0,1.4-0.6,2.5-1.6,3l7.5-4.1c1-0.5,1.6-1.6,1.6-3C124.4,25.5,124.4,25.2,124.2,25z"/>
			<path class="st4" d="M29.2,13.7c-1.9-0.3-3.5,1.2-3.5,3.3s1.6,4,3.5,4.3l1.6,0.2l80.8,11.4l1.7,0.2c1.9,0.3,3.5-1.2,3.5-3.3
				c0-2.1-1.6-4-3.5-4.3L29.2,13.7z"/>
			<path class="st4" d="M29.2,83.9c-1.9-0.3-3.5,1.2-3.5,3.3c0,2.1,1.6,4,3.5,4.3l32.7,4.6l12.4,1.7l39,5.5c1.9,0.3,3.5-1.2,3.5-3.3
				s-1.6-4-3.5-4.3l-1.7-0.2L30.8,84.1L29.2,83.9z"/>
			<path class="st5" d="M47.2,41.9c-2,3.4-3.1,7.6-3.1,12.1c0,4.6,1.2,9.1,3.2,13c4.1,8.1,11.6,14.2,20.2,15.5V57.2L47.2,41.9z"/>
			<path class="st4" d="M67.6,32.2C59,31,51.4,35,47.4,42l20.2,15.4V32.2z"/>
			<g>
				<path class="st6" d="M67.6,32.2v25.2v25.2c8.6,1.2,16.2-2.8,20.2-9.8c2-3.4,3.1-7.6,3.1-12.2s-1.2-9-3.2-13
					C83.8,39.5,76.2,33.4,67.6,32.2z"/>
			</g>
		</g>
	</g>
</g>
<g>
	<g>
		<g>
			<path class="st3" d="M-290.8,192.4l-38.9-5.5v13.5l48.6,6.9v-10.2l11.6,1.6l0.2,81.4l-72.7-10.3l-0.2-104.6l51.3,7.4
				L-290.8,192.4z"/>
			<g>
				<polygon class="st5" points="-330,224.3 -330,227.6 -281.2,234.4 -281.2,231.3 				"/>
				<polygon class="st5" points="-330.2,211.9 -330.2,215.1 -281.3,221.9 -281.3,218.8 				"/>
				<polygon class="st5" points="-330,249.4 -330,252.7 -281.2,259.5 -281.2,256.3 				"/>
				<polygon class="st5" points="-330,236.9 -330,240.2 -281.2,247.1 -281.2,243.8 				"/>
			</g>
			<polygon class="st4" points="-329.7,186.9 -329.5,200.2 -281,207.2 -281,196.9 -290.8,195.6 -290.8,192.4 			"/>
			<g>
				<polygon class="st6" points="-290.8,172.2 -290.8,172.6 -290.8,192.4 -290.8,195.6 -281,196.9 -269.5,198.6 -269.1,198.7 				
					"/>
			</g>
		</g>
	</g>
</g>
<g>
	<g>
		<g>
			<polygon class="st7" points="530.3,425.8 537.8,421.8 537.8,396.5 530.2,400.5 			"/>
		</g>
	</g>
	<polygon class="st8" points="530.2,400.5 537.8,396.5 523.5,394.5 516.1,398.5 	"/>
	<g>
		<g>
			<polygon class="st6" points="516.1,398.5 516.1,423.8 530.3,425.8 530.2,400.5 			"/>
		</g>
	</g>
	<g>
		<g>
			<polygon class="st0" points="555,430.3 562.5,426.3 562.5,371.8 555,375.8 			"/>
		</g>
	</g>
	<polygon class="st1" points="555,375.8 562.5,371.8 548.2,369.8 540.8,373.8 	"/>
	<g>
		<g>
			<polygon class="st4" points="540.8,373.8 541,428.3 555,430.3 555,375.8 			"/>
		</g>
	</g>
	<g>
		<g>
			<polygon class="st7" points="579.8,434.8 587.2,430.8 587.1,386.8 579.8,390.8 			"/>
		</g>
	</g>
	<polygon class="st8" points="579.8,390.8 587.1,386.8 573,384.8 565.5,388.8 	"/>
	<g>
		<g>
			<polygon class="st6" points="565.5,388.8 565.6,432.8 579.8,434.8 579.8,390.8 			"/>
		</g>
	</g>
	<g>
		<g>
			<polygon class="st0" points="604.5,439.3 612,435.3 611.8,365.5 604.5,369.5 			"/>
		</g>
	</g>
	<polygon class="st1" points="604.5,369.5 611.8,365.5 597.6,363.5 590.2,367.5 	"/>
	<g>
		<g>
			<polygon class="st4" points="590.2,367.5 590.3,437.3 604.5,439.3 604.5,369.5 			"/>
		</g>
	</g>
	<g>
		<g>
			<polygon class="st5" points="570.8,326 577.1,332.2 563.8,348.7 543.2,336.3 520.2,375.2 545.3,352.3 565.6,367.2 588.8,343.8 
				595,349.8 597.1,321.5 			"/>
		</g>
	</g>
</g>
<g id="text_x5F_x">
	<g>
		<g>
			<g>
				<defs>
					<rect id="SVGID_1_" x="8021.1" y="7090.8" width="1006.3" height="1006.3"/>
				</defs>
				<clipPath id="SVGID_2_">
					<use xlink:href="#SVGID_1_"  style="overflow:visible;"/>
				</clipPath>
				<g class="st9">
					<g>
						<defs>
							<rect id="SVGID_3_" x="8021.1" y="7090.8" width="1006.3" height="1006.3"/>
						</defs>
						<clipPath id="SVGID_4_">
							<use xlink:href="#SVGID_3_"  style="overflow:visible;"/>
						</clipPath>
						<g class="st10">
							<g>
								<defs>
									<rect id="SVGID_5_" x="8021.1" y="7090.8" width="1006.3" height="1006.3"/>
								</defs>
								<clipPath id="SVGID_6_">
									<use xlink:href="#SVGID_5_"  style="overflow:visible;"/>
								</clipPath>
								<g class="st11">
									<g>
										<g>
											<defs>
												<rect id="SVGID_7_" x="8444.5" y="7531.1" width="117" height="149"/>
											</defs>
											<clipPath id="SVGID_8_">
												<use xlink:href="#SVGID_7_"  style="overflow:visible;"/>
											</clipPath>
											<g class="st12">
												<g>
													<defs>
														<rect id="SVGID_9_" x="8444.5" y="7531.1" width="117" height="149"/>
													</defs>
													<clipPath id="SVGID_10_">
														<use xlink:href="#SVGID_9_"  style="overflow:visible;"/>
													</clipPath>
													<g class="st13">
													</g>
												</g>
											</g>
										</g>
									</g>
								</g>
							</g>
							<g>
								<defs>
									<rect id="SVGID_11_" x="8021.1" y="7090.8" width="1006.3" height="1006.3"/>
								</defs>
								<clipPath id="SVGID_12_">
									<use xlink:href="#SVGID_11_"  style="overflow:visible;"/>
								</clipPath>
								<path class="st14" d="M8546.8,7666.3c0.1-0.1,0.2-0.2,0.3-0.3c0-0.1,0.1-0.1,0.1-0.2c0.1-0.1,0.1-0.2,0.2-0.4
									c0-0.1,0.1-0.2,0.1-0.3c0-0.1,0.1-0.3,0.1-0.4s0-0.2,0.1-0.3c0-0.1,0-0.3,0-0.4s0-0.2,0-0.3c0-0.2,0-0.3,0-0.5
									c0-0.1,0-0.1,0-0.2c0-0.2-0.1-0.5-0.2-0.7l0,0v-0.1c-0.1-0.2-0.1-0.3-0.2-0.5l-0.1-0.2l-32.4-39.5l-7.5,4.1l32.4,39.5
									c0.1,0.2,0.2,0.4,0.3,0.7v0.1c0.1,0.2,0.2,0.5,0.2,0.7c0,0.1,0,0.1,0,0.2c0,0.2,0,0.4,0.1,0.5c0,0.1,0,0.2,0,0.3
									c0,0.1,0,0.3,0,0.4s0,0.2-0.1,0.3c0,0.1-0.1,0.3-0.1,0.4s-0.1,0.2-0.1,0.3c-0.1,0.1-0.1,0.2-0.2,0.4c0,0.1-0.1,0.2-0.1,0.2
									c-0.1,0.1-0.2,0.2-0.3,0.3c-0.1,0.1-0.1,0.1-0.1,0.2c-0.2,0.2-0.3,0.3-0.5,0.4l-0.1,0.1l7.5-4.1l0.1-0.1
									c0.2-0.1,0.4-0.3,0.5-0.4C8546.6,7666.4,8546.8,7666.4,8546.8,7666.3"/>
							</g>
							<g>
								<defs>
									<rect id="SVGID_13_" x="8021.1" y="7090.8" width="1006.3" height="1006.3"/>
								</defs>
								<clipPath id="SVGID_14_">
									<use xlink:href="#SVGID_13_"  style="overflow:visible;"/>
								</clipPath>
								<path class="st15" d="M8510.5,7662.3v-1.1l-0.1-33l-7.5,4.1l0.1,28.9h-1.7v7.2h4.4C8509,7667.5,8510.1,7664.5,8510.5,7662.3
									"/>
							</g>
							<g>
								<defs>
									<rect id="SVGID_15_" x="8021.1" y="7090.8" width="1006.3" height="1006.3"/>
								</defs>
								<clipPath id="SVGID_16_">
									<use xlink:href="#SVGID_15_"  style="overflow:visible;"/>
								</clipPath>
								<path class="st16" d="M8552.2,7626.1c0-0.1,0-0.1-0.1-0.2c0-0.2-0.1-0.3-0.1-0.5l0,0c0,0,0,0,0-0.1
									c-0.1-0.2-0.1-0.4-0.2-0.5c0,0,0,0,0-0.1s-0.1-0.1-0.1-0.2c-0.1-0.1-0.1-0.2-0.2-0.2c0-0.1-0.1-0.1-0.2-0.2l-0.1-0.1
									c0,0,0-0.1-0.1-0.1c-0.1-0.1-0.2-0.2-0.4-0.4l0,0c0,0-0.1,0-0.1-0.1c-0.1-0.1-0.2-0.2-0.3-0.2c0,0-0.1,0-0.1-0.1
									c-0.1-0.1-0.2-0.1-0.2-0.1c-0.1,0-0.1-0.1-0.2-0.1c-0.1,0-0.1-0.1-0.2-0.1c-0.1,0-0.1,0-0.2-0.1c-0.2-0.1-0.4-0.1-0.6-0.2
									l-1.7-0.2l-80.8-11.4l-1.6-0.2c-0.7-0.1-1.3,0-1.9,0.3c-2.5,1.4-5,2.7-7.5,4.1c0.5-0.3,1.2-0.4,1.9-0.3l1.6,0.2l80.8,11.4
									l1.7,0.2c0.2,0,0.4,0.1,0.6,0.2c0.1,0,0.1,0,0.2,0.1c0.1,0.1,0.3,0.1,0.4,0.2c0.1,0,0.2,0.1,0.3,0.2s0.3,0.2,0.4,0.3
									l0.1,0.1c0.2,0.1,0.3,0.3,0.5,0.5l0.1,0.1c0.1,0.1,0.2,0.3,0.3,0.5l0.1,0.1c0.1,0.2,0.2,0.4,0.3,0.6l0,0
									c0.1,0.2,0.1,0.4,0.2,0.6v0.1c0,0.3,0.1,0.5,0.1,0.8c0,1.3-0.6,2.4-1.6,3c2.5-1.4,5-2.7,7.5-4.1c1-0.5,1.6-1.6,1.6-3
									C8552.3,7626.6,8552.2,7626.4,8552.2,7626.1"/>
							</g>
							<g>
								<defs>
									<rect id="SVGID_17_" x="8021.1" y="7090.8" width="1006.3" height="1006.3"/>
								</defs>
								<clipPath id="SVGID_18_">
									<use xlink:href="#SVGID_17_"  style="overflow:visible;"/>
								</clipPath>
								<polygon class="st17" points="8539.6,7626.3 8547.2,7622.2 8547,7558.6 8539.5,7562.8 								"/>
							</g>
							<g>
								<defs>
									<rect id="SVGID_19_" x="8021.1" y="7090.8" width="1006.3" height="1006.3"/>
								</defs>
								<clipPath id="SVGID_20_">
									<use xlink:href="#SVGID_19_"  style="overflow:visible;"/>
								</clipPath>
								<polygon class="st18" points="8458.8,7551.3 8458.8,7614.9 8539.6,7626.3 8539.5,7562.8 								"/>
							</g>
							<g>
								<defs>
									<rect id="SVGID_21_" x="8021.1" y="7090.8" width="1006.3" height="1006.3"/>
								</defs>
								<clipPath id="SVGID_22_">
									<use xlink:href="#SVGID_21_"  style="overflow:visible;"/>
								</clipPath>
								<path class="st19" d="M8495.5,7631.3l-30.5,28.3c-0.3,0.4-0.7,0.7-1.1,1l7.5-4.1c0.4-0.2,0.8-0.5,1.1-1l30.5-28.3
									L8495.5,7631.3z"/>
							</g>
							<g>
								<defs>
									<rect id="SVGID_23_" x="8021.1" y="7090.8" width="1006.3" height="1006.3"/>
								</defs>
								<clipPath id="SVGID_24_">
									<use xlink:href="#SVGID_23_"  style="overflow:visible;"/>
								</clipPath>
								<path class="st20" d="M8491.2,7623.9l-32.3,30.4c-1.1,1.6-0.7,4.2,1,5.6c0.6,0.6,1.4,0.9,2.1,1c1.2,0.2,2.3-0.3,3-1.3
									l30.5-28.3l0.1,33c0,2.2,1.6,4.2,3.7,4.5c2,0.3,3.7-1.2,3.7-3.4l-0.1-33l30.6,36.9c0.7,1.2,1.8,2,3,2.1
									c0.7,0.1,1.4,0,2.1-0.4c1.7-1,2.1-3.4,0.9-5.4l-32.4-39.5L8491.2,7623.9z"/>
							</g>
							<g>
								<defs>
									<rect id="SVGID_25_" x="8021.1" y="7090.8" width="1006.3" height="1006.3"/>
								</defs>
								<clipPath id="SVGID_26_">
									<use xlink:href="#SVGID_25_"  style="overflow:visible;"/>
								</clipPath>
								<path class="st21" d="M8552.2,7555.9c0-0.1-0.1-0.2-0.1-0.3c0-0.1-0.1-0.3-0.1-0.4l0,0v-0.1c-0.1-0.2-0.1-0.3-0.2-0.5
									c0,0,0,0,0-0.1s-0.1-0.1-0.1-0.1c-0.1-0.1-0.1-0.2-0.2-0.2c0-0.1-0.1-0.1-0.2-0.2l-0.1-0.1c0,0,0-0.1-0.1-0.1
									c-0.1-0.1-0.2-0.3-0.4-0.4l0,0l-0.1-0.1c-0.1-0.1-0.2-0.2-0.3-0.2c0,0-0.1,0-0.1-0.1c-0.1-0.1-0.2-0.1-0.3-0.1
									s-0.1-0.1-0.2-0.1c-0.1,0-0.1-0.1-0.2-0.1c-0.1,0-0.1,0-0.2-0.1c-0.2-0.1-0.4-0.1-0.6-0.2l-84.1-11.8c-0.2,0-0.4,0-0.6,0
									c-0.1,0-0.1,0-0.2,0c-0.1,0-0.3,0-0.4,0.1h-0.1h-0.1c-0.1,0-0.3,0.1-0.4,0.1h-0.1l-0.1,0.1l-7.5,4.1c0.1,0,0.1-0.1,0.2-0.1
									c0.1,0,0.2-0.1,0.4-0.1c0.1,0,0.1,0,0.2,0c0.1,0,0.2,0,0.4-0.1c0.1,0,0.1,0,0.2,0c0.2,0,0.4,0,0.6,0l84.1,11.8
									c0.2,0,0.4,0.1,0.6,0.2c0.1,0,0.1,0,0.2,0.1c0.1,0.1,0.3,0.1,0.4,0.2c0.1,0,0.2,0.1,0.3,0.1c0.1,0.1,0.3,0.2,0.4,0.3
									c0,0,0.1,0,0.1,0.1c0.2,0.1,0.3,0.3,0.5,0.5l0.1,0.1c0.1,0.1,0.2,0.3,0.3,0.4l0.1,0.1c0.1,0.2,0.2,0.4,0.3,0.6
									c0,0,0,0,0,0.1c0.1,0.2,0.1,0.4,0.2,0.6c0,0.1,0,0.1,0,0.1c0,0.3,0.1,0.5,0.1,0.8c0,1.4-0.6,2.5-1.6,3l7.5-4.1
									c1-0.5,1.6-1.6,1.6-3C8552.3,7556.4,8552.2,7556.1,8552.2,7555.9"/>
							</g>
							<g>
								<defs>
									<rect id="SVGID_27_" x="8021.1" y="7090.8" width="1006.3" height="1006.3"/>
								</defs>
								<clipPath id="SVGID_28_">
									<use xlink:href="#SVGID_27_"  style="overflow:visible;"/>
								</clipPath>
								<path class="st22" d="M8457.1,7544.6c-1.9-0.3-3.5,1.2-3.5,3.3c0,2.1,1.6,4,3.5,4.3l1.6,0.2l80.8,11.4l1.7,0.2
									c1.9,0.3,3.5-1.2,3.5-3.3c0-2.1-1.6-4-3.5-4.3L8457.1,7544.6z"/>
							</g>
							<g>
								<defs>
									<rect id="SVGID_29_" x="8021.1" y="7090.8" width="1006.3" height="1006.3"/>
								</defs>
								<clipPath id="SVGID_30_">
									<use xlink:href="#SVGID_29_"  style="overflow:visible;"/>
								</clipPath>
								<path class="st23" d="M8457.1,7614.8c-1.9-0.3-3.5,1.2-3.5,3.3c0,2.1,1.6,4,3.5,4.3l32.7,4.6l12.4,1.7l39,5.5
									c1.9,0.3,3.5-1.2,3.5-3.3c0-2.1-1.6-4-3.5-4.3l-1.7-0.2l-80.8-11.4L8457.1,7614.8z"/>
							</g>
							<g>
								<defs>
									<rect id="SVGID_31_" x="8021.1" y="7090.8" width="1006.3" height="1006.3"/>
								</defs>
								<clipPath id="SVGID_32_">
									<use xlink:href="#SVGID_31_"  style="overflow:visible;"/>
								</clipPath>
								<path class="st24" d="M8475,7572.8c-2,3.4-3.1,7.6-3.1,12.1c0,4.6,1.2,9.1,3.2,13c4.1,8.1,11.6,14.2,20.2,15.5v-25.2
									L8475,7572.8z"/>
							</g>
							<g>
								<defs>
									<rect id="SVGID_33_" x="8021.1" y="7090.8" width="1006.3" height="1006.3"/>
								</defs>
								<clipPath id="SVGID_34_">
									<use xlink:href="#SVGID_33_"  style="overflow:visible;"/>
								</clipPath>
								<path class="st25" d="M8495.5,7563.1c-8.6-1.2-16.2,2.8-20.2,9.8l20.2,15.4V7563.1z"/>
							</g>
							<g>
								<defs>
									<rect id="SVGID_35_" x="8021.1" y="7090.8" width="1006.3" height="1006.3"/>
								</defs>
								<clipPath id="SVGID_36_">
									<use xlink:href="#SVGID_35_"  style="overflow:visible;"/>
								</clipPath>
								<path class="st26" d="M8495.5,7563.1v25.2v25.2c8.6,1.2,16.2-2.8,20.2-9.8c2-3.4,3.1-7.6,3.1-12.2s-1.2-9-3.2-13
									C8511.6,7570.4,8504.1,7564.3,8495.5,7563.1"/>
							</g>
							<g>
								<defs>
									<rect id="SVGID_37_" x="8021.1" y="7090.8" width="1006.3" height="1006.3"/>
								</defs>
								<clipPath id="SVGID_38_">
									<use xlink:href="#SVGID_37_"  style="overflow:visible;"/>
								</clipPath>
								<g class="st27">
									<g>
										<g>
											<defs>
												<rect id="SVGID_39_" x="8225.5" y="7527.1" width="91" height="133"/>
											</defs>
											<clipPath id="SVGID_40_">
												<use xlink:href="#SVGID_39_"  style="overflow:visible;"/>
											</clipPath>
											<g class="st28">
												<g>
													<defs>
														<rect id="SVGID_41_" x="8225.5" y="7527.1" width="91" height="133"/>
													</defs>
													<clipPath id="SVGID_42_">
														<use xlink:href="#SVGID_41_"  style="overflow:visible;"/>
													</clipPath>
													<g class="st29">
													</g>
												</g>
											</g>
										</g>
									</g>
								</g>
							</g>
							<g>
								<defs>
									<rect id="SVGID_43_" x="8021.1" y="7090.8" width="1006.3" height="1006.3"/>
								</defs>
								<clipPath id="SVGID_44_">
									<use xlink:href="#SVGID_43_"  style="overflow:visible;"/>
								</clipPath>
								<polygon class="st30" points="8286.5,7563.8 8247.5,7558.3 8247.6,7571.8 8296.1,7578.6 8296.1,7568.4 8307.8,7570.1 
									8308,7651.5 8235.2,7641.2 8235,7536.6 8286.5,7544 								"/>
							</g>
							<g>
								<defs>
									<rect id="SVGID_45_" x="8021.1" y="7090.8" width="1006.3" height="1006.3"/>
								</defs>
								<clipPath id="SVGID_46_">
									<use xlink:href="#SVGID_45_"  style="overflow:visible;"/>
								</clipPath>
								<polygon class="st31" points="8247.1,7595.8 8247.1,7599 8296,7606 8296,7602.8 								"/>
							</g>
							<g>
								<defs>
									<rect id="SVGID_47_" x="8021.1" y="7090.8" width="1006.3" height="1006.3"/>
								</defs>
								<clipPath id="SVGID_48_">
									<use xlink:href="#SVGID_47_"  style="overflow:visible;"/>
								</clipPath>
								<polygon class="st32" points="8247.1,7583.3 8247.1,7586.5 8296,7593.4 8295.8,7590.2 								"/>
							</g>
							<g>
								<defs>
									<rect id="SVGID_49_" x="8021.1" y="7090.8" width="1006.3" height="1006.3"/>
								</defs>
								<clipPath id="SVGID_50_">
									<use xlink:href="#SVGID_49_"  style="overflow:visible;"/>
								</clipPath>
								<polygon class="st33" points="8247.1,7620.9 8247.1,7624.1 8296,7631.1 8296,7627.9 								"/>
							</g>
							<g>
								<defs>
									<rect id="SVGID_51_" x="8021.1" y="7090.8" width="1006.3" height="1006.3"/>
								</defs>
								<clipPath id="SVGID_52_">
									<use xlink:href="#SVGID_51_"  style="overflow:visible;"/>
								</clipPath>
								<polygon class="st34" points="8247.1,7608.4 8247.1,7611.6 8296,7618.5 8296,7615.3 								"/>
							</g>
							<g>
								<defs>
									<rect id="SVGID_53_" x="8021.1" y="7090.8" width="1006.3" height="1006.3"/>
								</defs>
								<clipPath id="SVGID_54_">
									<use xlink:href="#SVGID_53_"  style="overflow:visible;"/>
								</clipPath>
								<polygon class="st35" points="8247.5,7558.3 8247.6,7571.8 8296.1,7578.6 8296.1,7568.4 8286.5,7567.1 8286.5,7563.8 
																	"/>
							</g>
							<g>
								<defs>
									<rect id="SVGID_55_" x="8021.1" y="7090.8" width="1006.3" height="1006.3"/>
								</defs>
								<clipPath id="SVGID_56_">
									<use xlink:href="#SVGID_55_"  style="overflow:visible;"/>
								</clipPath>
								<polygon class="st36" points="8286.5,7543.8 8286.5,7544 8286.5,7563.8 8286.5,7567.1 8296.1,7568.4 8307.8,7570.1 
									8308,7570.1 								"/>
							</g>
							<g>
								<defs>
									<rect id="SVGID_57_" x="8021.1" y="7090.8" width="1006.3" height="1006.3"/>
								</defs>
								<clipPath id="SVGID_58_">
									<use xlink:href="#SVGID_57_"  style="overflow:visible;"/>
								</clipPath>
								<g class="st37">
									<g>
										<g>
											<defs>
												<rect id="SVGID_59_" x="8688.8" y="7636.4" width="18" height="40"/>
											</defs>
											<clipPath id="SVGID_60_">
												<use xlink:href="#SVGID_59_"  style="overflow:visible;"/>
											</clipPath>
											<g class="st38">
												<g>
													<defs>
														<rect id="SVGID_61_" x="8688.8" y="7636.4" width="18" height="40"/>
													</defs>
													<clipPath id="SVGID_62_">
														<use xlink:href="#SVGID_61_"  style="overflow:visible;"/>
													</clipPath>
													<g class="st39">
													</g>
												</g>
											</g>
										</g>
									</g>
								</g>
							</g>
							<g>
								<defs>
									<rect id="SVGID_63_" x="8021.1" y="7090.8" width="1006.3" height="1006.3"/>
								</defs>
								<clipPath id="SVGID_64_">
									<use xlink:href="#SVGID_63_"  style="overflow:visible;"/>
								</clipPath>
								<polygon class="st40" points="8694,7671 8701.5,7666.9 8701.3,7641.6 8694,7645.8 								"/>
							</g>
							<g>
								<defs>
									<rect id="SVGID_65_" x="8021.1" y="7090.8" width="1006.3" height="1006.3"/>
								</defs>
								<clipPath id="SVGID_66_">
									<use xlink:href="#SVGID_65_"  style="overflow:visible;"/>
								</clipPath>
								<polygon class="st41" points="8694,7645.8 8701.3,7641.6 8687.2,7639.6 8679.8,7643.8 								"/>
							</g>
							<g>
								<defs>
									<rect id="SVGID_67_" x="8021.1" y="7090.8" width="1006.3" height="1006.3"/>
								</defs>
								<clipPath id="SVGID_68_">
									<use xlink:href="#SVGID_67_"  style="overflow:visible;"/>
								</clipPath>
								<g class="st42">
									<g>
										<g>
											<defs>
												<rect id="SVGID_69_" x="8674.8" y="7639.4" width="24" height="37"/>
											</defs>
											<clipPath id="SVGID_70_">
												<use xlink:href="#SVGID_69_"  style="overflow:visible;"/>
											</clipPath>
											<g class="st43">
												<g>
													<defs>
														<rect id="SVGID_71_" x="8674.8" y="7639.4" width="24" height="37"/>
													</defs>
													<clipPath id="SVGID_72_">
														<use xlink:href="#SVGID_71_"  style="overflow:visible;"/>
													</clipPath>
													<g class="st44">
													</g>
												</g>
											</g>
										</g>
									</g>
								</g>
							</g>
							<g>
								<defs>
									<rect id="SVGID_73_" x="8021.1" y="7090.8" width="1006.3" height="1006.3"/>
								</defs>
								<clipPath id="SVGID_74_">
									<use xlink:href="#SVGID_73_"  style="overflow:visible;"/>
								</clipPath>
								<polygon class="st45" points="8679.8,7643.8 8679.8,7669 8694,7671 8694,7645.8 								"/>
							</g>
							<g>
								<defs>
									<rect id="SVGID_75_" x="8021.1" y="7090.8" width="1006.3" height="1006.3"/>
								</defs>
								<clipPath id="SVGID_76_">
									<use xlink:href="#SVGID_75_"  style="overflow:visible;"/>
								</clipPath>
								<g class="st46">
									<g>
										<g>
											<defs>
												<rect id="SVGID_77_" x="8713.8" y="7612.4" width="18" height="68"/>
											</defs>
											<clipPath id="SVGID_78_">
												<use xlink:href="#SVGID_77_"  style="overflow:visible;"/>
											</clipPath>
											<g class="st47">
												<g>
													<defs>
														<rect id="SVGID_79_" x="8713.8" y="7612.4" width="18" height="68"/>
													</defs>
													<clipPath id="SVGID_80_">
														<use xlink:href="#SVGID_79_"  style="overflow:visible;"/>
													</clipPath>
													<g class="st48">
													</g>
												</g>
											</g>
										</g>
									</g>
								</g>
							</g>
							<g>
								<defs>
									<rect id="SVGID_81_" x="8021.1" y="7090.8" width="1006.3" height="1006.3"/>
								</defs>
								<clipPath id="SVGID_82_">
									<use xlink:href="#SVGID_81_"  style="overflow:visible;"/>
								</clipPath>
								<polygon class="st49" points="8718.8,7675.5 8726.1,7671.4 8726,7616.8 8718.6,7620.9 								"/>
							</g>
							<g>
								<defs>
									<rect id="SVGID_83_" x="8021.1" y="7090.8" width="1006.3" height="1006.3"/>
								</defs>
								<clipPath id="SVGID_84_">
									<use xlink:href="#SVGID_83_"  style="overflow:visible;"/>
								</clipPath>
								<polygon class="st50" points="8718.6,7620.9 8726,7616.8 8712,7614.8 8704.5,7618.9 								"/>
							</g>
							<g>
								<defs>
									<rect id="SVGID_85_" x="8021.1" y="7090.8" width="1006.3" height="1006.3"/>
								</defs>
								<clipPath id="SVGID_86_">
									<use xlink:href="#SVGID_85_"  style="overflow:visible;"/>
								</clipPath>
								<g class="st51">
									<g>
										<g>
											<defs>
												<rect id="SVGID_87_" x="8699.8" y="7614.4" width="24" height="66"/>
											</defs>
											<clipPath id="SVGID_88_">
												<use xlink:href="#SVGID_87_"  style="overflow:visible;"/>
											</clipPath>
											<g class="st52">
												<g>
													<defs>
														<rect id="SVGID_89_" x="8699.8" y="7614.4" width="24" height="66"/>
													</defs>
													<clipPath id="SVGID_90_">
														<use xlink:href="#SVGID_89_"  style="overflow:visible;"/>
													</clipPath>
													<g class="st53">
													</g>
												</g>
											</g>
										</g>
									</g>
								</g>
							</g>
							<g>
								<defs>
									<rect id="SVGID_91_" x="8021.1" y="7090.8" width="1006.3" height="1006.3"/>
								</defs>
								<clipPath id="SVGID_92_">
									<use xlink:href="#SVGID_91_"  style="overflow:visible;"/>
								</clipPath>
								<polygon class="st54" points="8704.5,7618.9 8704.5,7673.5 8718.8,7675.5 8718.6,7620.9 								"/>
							</g>
							<g>
								<defs>
									<rect id="SVGID_93_" x="8021.1" y="7090.8" width="1006.3" height="1006.3"/>
								</defs>
								<clipPath id="SVGID_94_">
									<use xlink:href="#SVGID_93_"  style="overflow:visible;"/>
								</clipPath>
								<g class="st55">
									<g>
										<g>
											<defs>
												<rect id="SVGID_95_" x="8738.8" y="7627.4" width="17" height="58"/>
											</defs>
											<clipPath id="SVGID_96_">
												<use xlink:href="#SVGID_95_"  style="overflow:visible;"/>
											</clipPath>
											<g class="st56">
												<g>
													<defs>
														<rect id="SVGID_97_" x="8738.8" y="7627.4" width="17" height="58"/>
													</defs>
													<clipPath id="SVGID_98_">
														<use xlink:href="#SVGID_97_"  style="overflow:visible;"/>
													</clipPath>
													<g class="st57">
													</g>
												</g>
											</g>
										</g>
									</g>
								</g>
							</g>
							<g>
								<defs>
									<rect id="SVGID_99_" x="8021.1" y="7090.8" width="1006.3" height="1006.3"/>
								</defs>
								<clipPath id="SVGID_100_">
									<use xlink:href="#SVGID_99_"  style="overflow:visible;"/>
								</clipPath>
								<polygon class="st58" points="8743.5,7680 8751,7675.9 8750.8,7631.9 8743.5,7635.9 								"/>
							</g>
							<g>
								<defs>
									<rect id="SVGID_101_" x="8021.1" y="7090.8" width="1006.3" height="1006.3"/>
								</defs>
								<clipPath id="SVGID_102_">
									<use xlink:href="#SVGID_101_"  style="overflow:visible;"/>
								</clipPath>
								<polygon class="st59" points="8743.5,7635.9 8750.8,7631.9 8736.6,7629.9 8729.2,7633.9 								"/>
							</g>
							<g>
								<defs>
									<rect id="SVGID_103_" x="8021.1" y="7090.8" width="1006.3" height="1006.3"/>
								</defs>
								<clipPath id="SVGID_104_">
									<use xlink:href="#SVGID_103_"  style="overflow:visible;"/>
								</clipPath>
								<g class="st60">
									<g>
										<g>
											<defs>
												<rect id="SVGID_105_" x="8724.8" y="7629.4" width="24" height="56"/>
											</defs>
											<clipPath id="SVGID_106_">
												<use xlink:href="#SVGID_105_"  style="overflow:visible;"/>
											</clipPath>
											<g class="st61">
												<g>
													<defs>
														<rect id="SVGID_107_" x="8724.8" y="7629.4" width="24" height="56"/>
													</defs>
													<clipPath id="SVGID_108_">
														<use xlink:href="#SVGID_107_"  style="overflow:visible;"/>
													</clipPath>
													<g class="st62">
													</g>
												</g>
											</g>
										</g>
									</g>
								</g>
							</g>
							<g>
								<defs>
									<rect id="SVGID_109_" x="8021.1" y="7090.8" width="1006.3" height="1006.3"/>
								</defs>
								<clipPath id="SVGID_110_">
									<use xlink:href="#SVGID_109_"  style="overflow:visible;"/>
								</clipPath>
								<polygon class="st63" points="8729.2,7633.9 8729.3,7678 8743.5,7680 8743.5,7635.9 								"/>
							</g>
							<g>
								<defs>
									<rect id="SVGID_111_" x="8021.1" y="7090.8" width="1006.3" height="1006.3"/>
								</defs>
								<clipPath id="SVGID_112_">
									<use xlink:href="#SVGID_111_"  style="overflow:visible;"/>
								</clipPath>
								<g class="st64">
									<g>
										<g>
											<defs>
												<rect id="SVGID_113_" x="8763.8" y="7605.4" width="17" height="84"/>
											</defs>
											<clipPath id="SVGID_114_">
												<use xlink:href="#SVGID_113_"  style="overflow:visible;"/>
											</clipPath>
											<g class="st65">
												<g>
													<defs>
														<rect id="SVGID_115_" x="8763.8" y="7605.4" width="17" height="84"/>
													</defs>
													<clipPath id="SVGID_116_">
														<use xlink:href="#SVGID_115_"  style="overflow:visible;"/>
													</clipPath>
													<g class="st66">
													</g>
												</g>
											</g>
										</g>
									</g>
								</g>
							</g>
							<g>
								<defs>
									<rect id="SVGID_117_" x="8021.1" y="7090.8" width="1006.3" height="1006.3"/>
								</defs>
								<clipPath id="SVGID_118_">
									<use xlink:href="#SVGID_117_"  style="overflow:visible;"/>
								</clipPath>
								<polygon class="st67" points="8768.2,7684.5 8775.6,7680.4 8775.5,7610.5 8768,7614.6 								"/>
							</g>
							<g>
								<defs>
									<rect id="SVGID_119_" x="8021.1" y="7090.8" width="1006.3" height="1006.3"/>
								</defs>
								<clipPath id="SVGID_120_">
									<use xlink:href="#SVGID_119_"  style="overflow:visible;"/>
								</clipPath>
								<polygon class="st68" points="8768,7614.6 8775.5,7610.5 8761.3,7608.5 8754,7612.6 								"/>
							</g>
							<g>
								<defs>
									<rect id="SVGID_121_" x="8021.1" y="7090.8" width="1006.3" height="1006.3"/>
								</defs>
								<clipPath id="SVGID_122_">
									<use xlink:href="#SVGID_121_"  style="overflow:visible;"/>
								</clipPath>
								<g class="st69">
									<g>
										<g>
											<defs>
												<rect id="SVGID_123_" x="8748.8" y="7607.4" width="25" height="82"/>
											</defs>
											<clipPath id="SVGID_124_">
												<use xlink:href="#SVGID_123_"  style="overflow:visible;"/>
											</clipPath>
											<g class="st70">
												<g>
													<defs>
														<rect id="SVGID_125_" x="8748.8" y="7607.4" width="25" height="82"/>
													</defs>
													<clipPath id="SVGID_126_">
														<use xlink:href="#SVGID_125_"  style="overflow:visible;"/>
													</clipPath>
													<g class="st71">
													</g>
												</g>
											</g>
										</g>
									</g>
								</g>
							</g>
							<g>
								<defs>
									<rect id="SVGID_127_" x="8021.1" y="7090.8" width="1006.3" height="1006.3"/>
								</defs>
								<clipPath id="SVGID_128_">
									<use xlink:href="#SVGID_127_"  style="overflow:visible;"/>
								</clipPath>
								<polygon class="st72" points="8754,7612.6 8754,7682.5 8768.2,7684.5 8768,7614.6 								"/>
							</g>
							<g>
								<defs>
									<rect id="SVGID_129_" x="8021.1" y="7090.8" width="1006.3" height="1006.3"/>
								</defs>
								<clipPath id="SVGID_130_">
									<use xlink:href="#SVGID_129_"  style="overflow:visible;"/>
								</clipPath>
								<g class="st73">
									<g>
										<g>
											<defs>
												<rect id="SVGID_131_" x="8680" y="7562.5" width="89" height="66"/>
											</defs>
											<clipPath id="SVGID_132_">
												<use xlink:href="#SVGID_131_"  style="overflow:visible;"/>
											</clipPath>
											<g class="st74">
												<g>
													<defs>
														<rect id="SVGID_133_" x="8680" y="7562.5" width="89" height="66"/>
													</defs>
													<clipPath id="SVGID_134_">
														<use xlink:href="#SVGID_133_"  style="overflow:visible;"/>
													</clipPath>
													<g class="st75">
													</g>
												</g>
											</g>
										</g>
									</g>
								</g>
							</g>
							<g>
								<defs>
									<rect id="SVGID_135_" x="8021.1" y="7090.8" width="1006.3" height="1006.3"/>
								</defs>
								<clipPath id="SVGID_136_">
									<use xlink:href="#SVGID_135_"  style="overflow:visible;"/>
								</clipPath>
								<polygon class="st76" points="8734.5,7571.1 8740.8,7577.3 8727.5,7593.8 8706.8,7581.4 8684,7620.3 8709,7597.4 
									8729.3,7612.4 8752.5,7588.8 8758.6,7595 8760.8,7566.6 								"/>
							</g>
						</g>
					</g>
				</g>
			</g>
		</g>
	</g>
</g>
</svg>
