<?xml version="1.0" encoding="utf-8"?>
<!-- Generator: Adobe Illustrator 25.2.1, SVG Export Plug-In . SVG Version: 6.00 Build 0)  -->
<svg version="1.1" id="레이어_1" xmlns="http://www.w3.org/2000/svg" xmlns:xlink="http://www.w3.org/1999/xlink" x="0px"
	 y="0px" viewBox="0 0 80 20" style="enable-background:new 0 0 80 20;" xml:space="preserve">
<style type="text/css">
	.st0{fill:#FFFFFF;}
	.st1{fill:#DEE2E6;}
	.st2{fill:#5D66F5;}
</style>
<g>
	<rect x="0.5" y="0.5" class="st0" width="19" height="19"/>
	<path class="st1" d="M19,1v18H1V1H19 M20,0H0v20h20V0L20,0z"/>
</g>
<g>
	<rect x="20.5" y="0.5" class="st0" width="19" height="19"/>
	<g>
		<path class="st2" d="M39,1v18H21V1H39 M40,0H20v20h20V0L40,0z"/>
	</g>
</g>
<g>
	<rect x="40.5" y="0.5" class="st0" width="19" height="19"/>
	<path class="st1" d="M59,1v18H41V1H59 M60,0H40v20h20V0L60,0z"/>
</g>
<path class="st2" d="M54.5,5.3c0.6,0.6,1.3,1.2,1.9,1.8c-2.5,2.5-5.1,5.1-7.6,7.6c-1.5-1.6-3.6-3.6-5.1-5.1c0.6-0.6,1.3-1.2,1.9-1.8
	c0.9,0.9,2.3,2.3,3.3,3.2C50.7,9.1,52.6,7.2,54.5,5.3L54.5,5.3z"/>
<g>
	<rect x="60.5" y="0.5" class="st0" width="19" height="19"/>
	<path class="st2" d="M79,1v18H61V1H79 M80,0H60v20h20V0L80,0z"/>
</g>
<path class="st2" d="M74.5,5.3c0.6,0.6,1.3,1.2,1.9,1.8c-2.5,2.5-5.1,5.1-7.6,7.6c-1.5-1.6-3.6-3.6-5.1-5.1c0.6-0.6,1.3-1.2,1.9-1.8
	c0.9,0.9,2.3,2.3,3.3,3.2C70.7,9.1,72.6,7.2,74.5,5.3L74.5,5.3z"/>
</svg>
