<?xml version="1.0" encoding="utf-8"?>
<!-- Generator: Adobe Illustrator 25.2.1, SVG Export Plug-In . SVG Version: 6.00 Build 0)  -->
<svg version="1.1" id="레이어_1" xmlns="http://www.w3.org/2000/svg" xmlns:xlink="http://www.w3.org/1999/xlink" x="0px"
	 y="0px" viewBox="0 0 185 185" style="enable-background:new 0 0 185 185;" xml:space="preserve">
<style type="text/css">
	.st0{fill:none;stroke:#706D79;stroke-width:3.4103;stroke-miterlimit:10;}
	.st1{fill:#706D79;}
	.st2{fill:#F98AC9;}
	.st3{fill:#5966F8;}
	.st4{fill:#F6ECE4;}
	.st5{fill:#C2982D;}
	.st6{fill:#F9F2ED;}
	.st7{fill:#DED9D5;}
	.st8{fill:#D6CFCA;}
	.st9{fill:#FCA1D4;}
	.st10{fill:#DE8685;}
	.st11{fill:#CA3937;}
	.st12{fill:#FBAC1F;}
	.st13{fill:#EA81BF;}
	.st14{fill:#FAB723;}
	.st15{fill:#FFD86C;}
	.st16{fill:#FFE184;}
</style>
<g>
	<polyline class="st0" points="-133.8,72 -107.5,103 -71.3,112.6 	"/>
	<path class="st1" d="M-109.8,106.4c2,1.2,4.6,0.5,5.9-1.4c1.2-1.9,0.6-4.4-1.4-5.6c-2-1.2-4.6-0.5-5.9,1.4
		S-111.8,105.3-109.8,106.4z"/>
	<path class="st0" d="M-62.2,110.1l-4.4-1c-2.8-0.7-5.6,0.9-6.3,3.6l0,0c-0.7,2.6,1,5.3,3.7,6l4.4,1"/>
	<path class="st2" d="M-205.6,90.9c0,23.3,14.7,72.4,44.2,72.4c1.3,0,2.5-0.1,3.7-0.2c29.5-3.6,40.5-49.9,40.5-72.2
		c0-22.1-17.9-40.3-40.6-42c-1.2-0.1-2.4-0.2-3.6-0.2C-185.8,48.8-205.6,67.6-205.6,90.9z"/>
	<path class="st3" d="M-198.4,90.9c0,22.3,13.6,68.6,40.8,72.2c29.5-3.6,40.5-49.9,40.5-72.2c0-22.1-17.9-40.3-40.6-42
		C-180.6,50.6-198.4,68.8-198.4,90.9z"/>
	<path class="st2" d="M-190.9,42.5v21.2h0c-0.1,2.8,1,5.6,3.5,8.1c1.3,1.4,3,2.6,5.1,3.8c11.5,6.3,30.1,6.3,41.7,0
		c5.9-3.3,8.8-7.6,8.7-11.8h0V42.5c0-5.2-1.5-10-4-14.2c-1.3-2.1-2.8-4-4.6-5.7c-5.3-5.1-12.7-8.2-20.8-8.2
		C-177.7,14.4-190.9,27-190.9,42.5z"/>
	<path class="st4" d="M-188.4,45.9v21.2h0c-0.1,1.6,0.3,3.1,1,4.7c1.3,1.4,3,2.6,5.1,3.8c11.5,6.3,30.1,6.3,41.7,0
		c5.9-3.3,8.8-7.6,8.7-11.8h0V42.5c0-5.2-1.5-10-4-14.2c-0.7-0.8-1.4-1.6-2.2-2.3c-5.3-5.1-12.7-8.2-20.8-8.2
		C-175.2,17.8-188.4,30.4-188.4,45.9z"/>
	<g>
		<path class="st1" d="M-140.6,53.7c5.9-3.3,8.8-7.6,8.7-11.8h0v10.3h0c0.1,4.3-2.8,8.6-8.7,11.8c-7.2,4-17.2,5.5-26.4,4.5
			c-2.7-0.3-4.7-2.5-4.7-5.1v0c0-3,2.7-5.3,5.8-5.1C-157.1,59-147.6,57.5-140.6,53.7z"/>
	</g>
	<g>
		<g>
			<path class="st2" d="M-125.4,93.8c-1,0.6-1.9,2-1.9,3.1c0,1.1,0.9,1.6,1.9,1c1-0.6,1.9-2,1.9-3.1
				C-123.5,93.7-124.4,93.2-125.4,93.8z"/>
		</g>
		<g>
			<path class="st2" d="M-132.8,97.9c-1,0.6-1.9,2-1.9,3.1c0,1.1,0.9,1.6,1.9,1c1-0.6,1.9-2,1.9-3.1
				C-130.9,97.8-131.8,97.3-132.8,97.9z"/>
		</g>
		<g>
			<path class="st2" d="M-140.2,102c-1,0.6-1.9,2-1.9,3.1c0,1.1,0.9,1.6,1.9,1c1-0.6,1.9-2,1.9-3.1
				C-138.3,101.8-139.2,101.4-140.2,102z"/>
		</g>
		<g>
			<path class="st2" d="M-128.5,102.8c-1.1,0.6-1.9,2-1.9,3.1c0,1.1,0.8,1.6,1.9,1c1-0.6,1.9-2,1.9-3.1
				C-126.6,102.7-127.4,102.2-128.5,102.8z"/>
		</g>
		<g>
			<path class="st2" d="M-135.9,106.9c-1,0.6-1.9,2-1.9,3.1c0,1.1,0.9,1.6,1.9,1c1-0.6,1.9-2,1.9-3.1
				C-134,106.7-134.8,106.3-135.9,106.9z"/>
		</g>
		<g>
			<path class="st2" d="M-143.3,110.9c-1,0.6-1.9,2-1.9,3.1c0,1.1,0.9,1.6,1.9,1c1-0.6,1.9-2,1.9-3.1
				C-141.4,110.8-142.2,110.3-143.3,110.9z"/>
		</g>
		<g>
			<path class="st2" d="M-128.5,110.4c-1.1,0.6-1.9,2-1.9,3.1c0,1.1,0.8,1.6,1.9,1c1-0.6,1.9-2,1.9-3.1
				C-126.6,110.3-127.4,109.9-128.5,110.4z"/>
		</g>
		<g>
			<path class="st2" d="M-135.8,114.5c-1,0.6-1.9,2-1.9,3.1c0,1.1,0.9,1.6,1.9,1c1-0.6,1.9-2,1.9-3.1
				C-134,114.4-134.8,113.9-135.8,114.5z"/>
		</g>
		<g>
			<path class="st2" d="M-143.2,118.6c-1,0.6-1.9,2-1.9,3.1c0,1.1,0.9,1.6,1.9,1c1-0.6,1.9-2,1.9-3.1
				C-141.4,118.5-142.2,118-143.2,118.6z"/>
		</g>
		<g>
			<path class="st2" d="M-128.5,118.6c-1.1,0.6-1.9,2-1.9,3.1c0,1.1,0.8,1.6,1.9,1c1-0.6,1.9-2,1.9-3.1
				C-126.6,118.5-127.4,118-128.5,118.6z"/>
		</g>
		<g>
			<path class="st2" d="M-135.8,122.6c-1,0.6-1.9,2-1.9,3.1c0,1.1,0.9,1.6,1.9,1c1-0.6,1.9-2,1.9-3.1
				C-134,122.5-134.8,122.1-135.8,122.6z"/>
		</g>
		<g>
			<path class="st2" d="M-143.2,126.7c-1,0.6-1.9,2-1.9,3.1c0,1.1,0.9,1.6,1.9,1c1-0.6,1.9-2,1.9-3.1
				C-141.4,126.6-142.2,126.1-143.2,126.7z"/>
		</g>
		<g>
			<path class="st2" d="M-147.6,106c-1,0.6-1.9,2-1.9,3.1c0,1.1,0.8,1.6,1.9,1c1-0.6,1.9-2,1.9-3.1
				C-145.7,105.9-146.6,105.5-147.6,106z"/>
		</g>
	</g>
	<polyline class="st0" points="-189.8,89.6 -204.1,127 -194,161.6 	"/>
	<path class="st1" d="M-193.4,96.4l1.6,0.6c1.7,0.6,3.6-0.1,4.3-1.8l2-4.7c0.9-2-0.2-4.4-2.3-5.2l0,0c-2.1-0.8-4.6,0.2-5.4,2.2
		l-2,4.7C-195.9,93.9-195.1,95.8-193.4,96.4z"/>
	<path class="st1" d="M-208.3,127c0,2.2,1.9,4.1,4.3,4.1c2.4,0,4.3-1.8,4.3-4.1c0-2.2-1.9-4.1-4.3-4.1
		C-206.4,123-208.3,124.8-208.3,127z"/>
	<path class="st0" d="M-187,167.7l-1.3-4.1c-0.8-2.6-3.7-4.1-6.5-3.3h0c-2.7,0.8-4.3,3.6-3.5,6.2l1.3,4.1"/>
</g>
<g>
	<g>
		<polygon class="st2" points="94,55.8 26.7,94.9 13.3,87.2 80.5,48.1 		"/>
	</g>
	<g>
		<polygon class="st5" points="94,55.8 93.9,77.1 26.7,116.2 26.7,94.9 		"/>
	</g>
	<g>
		<polygon class="st3" points="26.7,94.9 26.7,116.2 13.3,108.5 13.3,87.2 		"/>
	</g>
	<g>
		<polygon class="st6" points="171.7,100.8 104.5,139.8 26.7,94.9 94,55.8 		"/>
	</g>
	<g>
		<polygon class="st7" points="171.7,100.8 171.7,122.1 104.5,161.1 104.5,139.8 		"/>
	</g>
	<g>
		<polygon class="st8" points="104.5,139.8 104.5,161.1 26.7,116.2 26.7,94.9 		"/>
	</g>
	
		<rect x="116.4" y="15.4" transform="matrix(0.613 0.7901 -0.7901 0.613 92.0477 -76.8971)" class="st3" width="16.3" height="80.2"/>
	<polygon class="st2" points="79.4,93.3 80.7,92.8 79.3,91.6 	"/>
	<polygon class="st2" points="76.7,89.8 77.4,88.8 78.6,90 78.1,90.7 	"/>
	<path class="st1" d="M76.7,89.8l-2.6,3.9c-0.4,0.6,0.2,1.4,0.9,1.2l4.4-1.6c0.5-0.2,0.7-0.9,0.3-1.3c-0.6-0.7-1.2-1.4-1.7-2.2
		C77.7,89.3,77.1,89.3,76.7,89.8z"/>
	<path class="st2" d="M92.3,80.5l-5-6.4l-9.9,14.6c0.8,1.5,1.9,3,3.2,4.1l16.7-6L92.3,80.5z"/>
	<g>
		<path class="st2" d="M162.3,33.4c0.5,3.6-1.8,5.5-5.2,4.1c-3.4-1.4-6.5-5.4-7-9.1c-0.5-3.6,1.8-5.5,5.2-4.1
			C158.7,25.7,161.8,29.8,162.3,33.4z"/>
	</g>
	<g>
		<path class="st3" d="M158.7,31.9c0.2,1.5-0.8,2.2-2.1,1.7c-1.4-0.6-2.7-2.2-2.9-3.7c-0.2-1.5,0.8-2.2,2.1-1.7
			C157.2,28.8,158.5,30.5,158.7,31.9z"/>
	</g>
	<g>
		<path class="st3" d="M99,82.6c0.5,3.6-1.8,5.5-5.2,4.1c-3.4-1.4-6.5-5.4-7-9.1c-0.5-3.6,1.8-5.5,5.2-4.1
			C95.3,74.9,98.5,78.9,99,82.6z"/>
	</g>
</g>
<g>
	<polygon class="st3" points="525.8,48.5 526.2,180.6 593.8,141.6 593.5,9.4 	"/>
	<polygon class="st4" points="530.4,54.8 530.7,155.9 589.3,122.1 589,21 	"/>
	<polygon class="st2" points="525.8,48.5 517.1,43.4 517.5,175.6 526.2,180.6 	"/>
	<polygon class="st9" points="593.5,9.4 584.8,4.4 517.1,43.4 525.8,48.5 	"/>
	<g>
		<path class="st1" d="M562.4,146.4c-1.4,0.8-2.6,2.8-2.6,4.4c0,1.6,1.2,2.3,2.6,1.5c1.4-0.8,2.6-2.8,2.6-4.5
			C565,146.3,563.8,145.6,562.4,146.4z"/>
	</g>
	<g>
		<g>
			<path class="st10" d="M563.1,87.3L563.1,87.3c2.7,1.6,5.3,3.1,8,4.7l0,0c0,0,0,0,0,0C568.4,90.4,565.8,88.9,563.1,87.3
				c2.7,1.6,5.4,3.1,8,4.7c0.1-0.1,0.2-0.2,0.3-0.3c-2.7-1.5-5.3-3.1-8-4.6c2.7,1.5,5.3,3.1,8,4.6l0,0l-8-4.7
				C563.2,87.1,563.2,87.2,563.1,87.3z"/>
		</g>
		<g>
			<path class="st11" d="M567.2,80.4c-0.2,0.2-0.3,0.4-0.5,0.6l8,4.7c0.2-0.2,0.3-0.4,0.5-0.6C572.8,83.6,569.6,81.8,567.2,80.4z"/>
		</g>
		<g>
			<path class="st11" d="M566.7,81c-1.2,1.8-2,4.5-3.4,6l8,4.7c1.4-1.6,2.1-4.3,3.4-6C572.3,84.3,569.1,82.4,566.7,81z"/>
		</g>
		<g>
			<path class="st9" d="M574.7,85.7c-1.2,1.8-2,4.5-3.4,6l0,23.5l3.9,0.7L575.2,85C575,85.2,574.9,85.4,574.7,85.7z"/>
		</g>
		<g>
			<path class="st10" d="M563.1,87.3c-0.2,0.2-0.5,0.4-0.8,0.6c2.7,1.6,5.3,3.1,8,4.7c0.3-0.2,0.5-0.3,0.8-0.6
				C568.4,90.4,565.7,88.9,563.1,87.3z"/>
		</g>
		<g>
			<path class="st10" d="M562.3,87.9c-1.4,0.8-2.9,0.6-4.3,1.5l8,4.7c1.4-0.8,3-0.7,4.3-1.5l0,0C567.6,91,565,89.4,562.3,87.9
				L562.3,87.9z"/>
		</g>
		<g>
			<path class="st9" d="M566,94c-1.4,0.8-3,2.8-4.3,3.6c-0.2,0.1-0.3,0.2-0.5,0.2l0,23.3l5.1-6.8l5.1,0.9l0-23.5
				c-0.1,0.1-0.2,0.2-0.3,0.3c-0.2,0.2-0.5,0.4-0.8,0.6C568.9,93.3,567.4,93.2,566,94z"/>
		</g>
		<g>
			<path class="st10" d="M553.1,93.1c2.7,1.6,5.3,3.1,8,4.7c0.2-0.1,0.3-0.1,0.5-0.2c-2.7-1.5-5.3-3.1-8-4.6c2.7,1.5,5.3,3.1,8,4.6
				l0,0c1.4-0.8,2.9-2.7,4.3-3.6l-8-4.7c-1.4,0.8-3,2.8-4.3,3.6C553.4,93,553.3,93.1,553.1,93.1z"/>
		</g>
		<g>
			<path class="st11" d="M553.1,93.1c-0.1,0-0.2,0.1-0.3,0.1l8,4.7c0.1,0,0.2,0,0.3-0.1C558.7,96.4,555.5,94.5,553.1,93.1z"/>
		</g>
		<g>
			<path class="st12" d="M549.6,91.3c0.7,0.4,1.3,1.2,2,1.7l8,4.7c-0.7-0.4-1.3-1.2-2-1.7C555.2,94.6,552,92.7,549.6,91.3z"/>
		</g>
		<g>
			<path class="st11" d="M552.8,93.2c-0.5,0.1-0.9,0-1.2-0.2l8,4.7c0.4,0.2,0.7,0.3,1.2,0.2L552.8,93.2L552.8,93.2z"/>
		</g>
		<g>
			<path class="st9" d="M560.9,97.9c-1.6,0.3-2.3-1.7-3.6-2.1l0.1,30.5l3.9-5.2l0-23.3C561,97.8,560.9,97.8,560.9,97.9z"/>
		</g>
		<g>
			<path class="st11" d="M549.6,91.3c-0.1-0.1-0.3-0.1-0.4-0.2l8,4.7c0.2,0,0.3,0.1,0.4,0.2C555.3,94.6,552,92.7,549.6,91.3z"/>
		</g>
		<g>
			<polygon class="st13" points="557.2,95.8 549.2,91.1 549.3,121.7 557.3,126.3 			"/>
		</g>
		<g>
			<path class="st12" d="M557.9,85.5c-3.2,1.8-6.1,2-8.2,0.8c2.7,1.6,5.3,3.1,8,4.7c2.1,1.2,5,1,8.2-0.8
				C563.5,88.7,560.3,86.9,557.9,85.5z"/>
		</g>
		<g>
			<path class="st14" d="M549.7,86.3l8,4.7c-2.1-1.2-3.4-3.8-3.4-7.4c0-7.3,5.1-16.2,11.5-19.9l-8-4.7c-6.4,3.7-11.5,12.6-11.5,19.9
				C546.4,82.5,547.7,85.1,549.7,86.3z"/>
		</g>
		<g>
			<path class="st12" d="M549.8,86.3C549.8,86.3,549.8,86.3,549.8,86.3l8,4.6c0,0,0,0,0,0C555.1,89.4,552.5,87.8,549.8,86.3z"/>
		</g>
		<g>
			<path class="st12" d="M569.4,65.5c0,7.3-5.1,16.2-11.5,19.9l8,4.7c6.4-3.7,11.5-12.6,11.5-19.9c0-3.6-1.3-6.2-3.4-7.4l-8-4.7
				C568.1,59.4,569.4,61.9,569.4,65.5z"/>
		</g>
		<g>
			<path class="st2" d="M566.6,53.3c-0.2,0-0.3-0.1-0.5-0.2l8,4.7c0.1,0.1,0.3,0.2,0.5,0.2c1.2,0.3,3.3-0.7,4.4-0.1l-8-4.7
				C569.9,52.5,567.9,53.6,566.6,53.3z"/>
		</g>
		<g>
			<path class="st14" d="M574.1,62.8l-8-4.7c-2.1-1.2-5-1-8.2,0.8l8,4.7C569.1,61.8,572,61.6,574.1,62.8z"/>
		</g>
		<g>
			<path class="st15" d="M552.5,73.4c1-2.1,3.3-3.5,4.6-5.4c1.3-1.9,2.1-4.8,3.7-6.3c0.2-0.2,0.5-0.4,0.8-0.6
				c1.4-0.8,2.9-0.6,4.3-1.5c1.4-0.8,3-2.8,4.3-3.5c0.3-0.2,0.5-0.3,0.8-0.3c1.6-0.3,2.4,1.7,3.7,2.1c1.3,0.3,3.6-0.9,4.6,0.1
				c1,1,0.3,3.9,0.8,5.4c0.5,1.5,2.3,2,2.3,4c0,2-1.8,4.6-2.3,6.6c-0.5,2.1,0.2,4.3-0.8,6.3c-0.8,1.8-2.7,3.1-4.1,4.7
				c-0.2,0.2-0.3,0.4-0.5,0.6c-1.2,1.8-2,4.5-3.4,6c-0.1,0.1-0.2,0.2-0.3,0.3c-0.2,0.2-0.5,0.4-0.8,0.6c-1.4,0.8-2.9,0.6-4.3,1.5
				c-1.4,0.8-3,2.8-4.3,3.6c-0.2,0.1-0.3,0.2-0.5,0.2c-0.1,0-0.2,0.1-0.3,0.1c-1.6,0.3-2.3-1.7-3.7-2.1c-1.3-0.4-3.6,0.9-4.6-0.1
				c-1-1-0.3-3.9-0.8-5.4c-0.5-1.5-2.3-2-2.3-4c0-2,1.8-4.6,2.3-6.6C552.2,77.6,551.6,75.5,552.5,73.4z M565.9,90.1
				c6.4-3.7,11.5-12.6,11.5-19.9c0-7.3-5.2-10.3-11.6-6.6c-6.4,3.7-11.5,12.6-11.5,19.9C554.4,90.8,559.6,93.8,565.9,90.1"/>
		</g>
		<g>
			
				<ellipse transform="matrix(0.5025 -0.8646 0.8646 0.5025 215.1157 527.5299)" class="st16" cx="565.9" cy="76.9" rx="16.3" ry="9.4"/>
		</g>
		<g>
			<path class="st2" d="M544.6,91.1c0.1,0.1,0.1,0.1,0.2,0.2l8,4.7c-0.1,0-0.2-0.1-0.2-0.2c-1-1-0.3-3.9-0.8-5.4
				c-0.5-1.5-2.3-2-2.3-4c0-2,1.8-4.6,2.3-6.6l-8-4.7c-0.5,2-2.3,4.7-2.3,6.6c0,2,1.8,2.5,2.3,4C544.3,87.2,543.6,90.1,544.6,91.1z"
				/>
		</g>
		<g>
			<path class="st2" d="M552.7,57.1c-1.6,1.5-2.3,4.4-3.6,6.2c2.7,1.6,5.3,3.1,8,4.7c1.3-1.9,2-4.8,3.6-6.2c0.2-0.2,0.5-0.4,0.8-0.6
				l0,0c1.4-0.8,2.9-0.6,4.3-1.5l0,0c1.4-0.8,3-2.8,4.3-3.5c0.3-0.2,0.5-0.3,0.8-0.3c0.5-0.1,0.9,0,1.2,0.2l-8-4.7
				c-0.4-0.2-0.7-0.3-1.2-0.2c-0.2,0-0.5,0.2-0.8,0.3c-1.4,0.8-2.9,2.7-4.3,3.5c-1.4,0.8-3,0.7-4.3,1.5l0,0
				C553.3,56.7,553,56.9,552.7,57.1z"/>
		</g>
		<g>
			<path class="st2" d="M544.5,68.8c-1,2.1-0.3,4.2-0.8,6.3l8,4.7c0.5-2.1-0.1-4.3,0.8-6.3c1-2.1,3.3-3.5,4.6-5.4l0,0c0,0,0,0,0-0.1
				c-2.7-1.6-5.3-3.1-8-4.7c0,0,0,0,0,0.1l0,0C547.8,65.3,545.5,66.7,544.5,68.8z"/>
		</g>
	</g>
</g>
</svg>
