<?xml version="1.0" encoding="utf-8"?>
<!-- Generator: Adobe Illustrator 25.2.1, SVG Export Plug-In . SVG Version: 6.00 Build 0)  -->
<svg version="1.1" id="레이어_1" xmlns="http://www.w3.org/2000/svg" xmlns:xlink="http://www.w3.org/1999/xlink" x="0px"
	 y="0px" viewBox="0 0 185 185" style="enable-background:new 0 0 185 185;" xml:space="preserve">
<style type="text/css">
	.st0{fill:none;stroke:#706D79;stroke-width:3.4103;stroke-miterlimit:10;}
	.st1{fill:#706D79;}
	.st2{fill:#F98AC9;}
	.st3{fill:#5966F8;}
	.st4{fill:#F6ECE4;}
	.st5{fill:#C2982D;}
	.st6{fill:#F9F2ED;}
	.st7{fill:#DED9D5;}
	.st8{fill:#D6CFCA;}
	.st9{fill:#FCA1D4;}
	.st10{fill:#DE8685;}
	.st11{fill:#CA3937;}
	.st12{fill:#FBAC1F;}
	.st13{fill:#EA81BF;}
	.st14{fill:#FAB723;}
	.st15{fill:#FFD86C;}
	.st16{fill:#FFE184;}
</style>
<g>
	<polyline class="st0" points="94,72 120.2,103 156.5,112.6 	"/>
	<path class="st1" d="M118,106.4c2,1.2,4.6,0.5,5.9-1.4c1.2-1.9,0.6-4.4-1.4-5.6c-2-1.2-4.6-0.5-5.9,1.4
		C115.3,102.8,116,105.3,118,106.4z"/>
	<path class="st0" d="M165.6,110.1l-4.4-1c-2.8-0.7-5.6,0.9-6.3,3.6l0,0c-0.7,2.6,1,5.3,3.7,6l4.4,1"/>
	<path class="st2" d="M22.2,90.9c0,23.3,14.7,72.4,44.2,72.4c1.3,0,2.5-0.1,3.7-0.2c29.5-3.6,40.5-49.9,40.5-72.2
		c0-22.1-17.9-40.3-40.6-42c-1.2-0.1-2.4-0.2-3.6-0.2C42,48.8,22.2,67.6,22.2,90.9z"/>
	<path class="st3" d="M29.3,90.9c0,22.3,13.6,68.6,40.8,72.2c29.5-3.6,40.5-49.9,40.5-72.2c0-22.1-17.9-40.3-40.6-42
		C47.2,50.6,29.3,68.8,29.3,90.9z"/>
	<path class="st2" d="M36.9,42.5v21.2h0c-0.1,2.8,1,5.6,3.5,8.1c1.3,1.4,3,2.6,5.1,3.8c11.5,6.3,30.1,6.3,41.7,0
		c5.9-3.3,8.8-7.6,8.7-11.8h0V42.5c0-5.2-1.5-10-4-14.2c-1.3-2.1-2.8-4-4.6-5.7c-5.3-5.1-12.7-8.2-20.8-8.2
		C50.1,14.4,36.9,27,36.9,42.5z"/>
	<path class="st4" d="M39.3,45.9v21.2h0c-0.1,1.6,0.3,3.1,1,4.7c1.3,1.4,3,2.6,5.1,3.8c11.5,6.3,30.1,6.3,41.7,0
		c5.9-3.3,8.8-7.6,8.7-11.8h0V42.5c0-5.2-1.5-10-4-14.2c-0.7-0.8-1.4-1.6-2.2-2.3c-5.3-5.1-12.7-8.2-20.8-8.2
		C52.5,17.8,39.3,30.4,39.3,45.9z"/>
	<g>
		<path class="st1" d="M87.1,53.7c5.9-3.3,8.8-7.6,8.7-11.8h0v10.3h0c0.1,4.3-2.8,8.6-8.7,11.8c-7.2,4-17.2,5.5-26.4,4.5
			C58,68.1,56,65.9,56,63.3v0c0-3,2.7-5.3,5.8-5.1C70.7,59,80.2,57.5,87.1,53.7z"/>
	</g>
	<g>
		<g>
			<path class="st2" d="M102.3,93.8c-1,0.6-1.9,2-1.9,3.1c0,1.1,0.9,1.6,1.9,1c1-0.6,1.9-2,1.9-3.1
				C104.2,93.7,103.4,93.2,102.3,93.8z"/>
		</g>
		<g>
			<path class="st2" d="M94.9,97.9c-1,0.6-1.9,2-1.9,3.1c0,1.1,0.9,1.6,1.9,1c1-0.6,1.9-2,1.9-3.1S96,97.3,94.9,97.9z"/>
		</g>
		<g>
			<path class="st2" d="M87.6,102c-1,0.6-1.9,2-1.9,3.1c0,1.1,0.9,1.6,1.9,1c1-0.6,1.9-2,1.9-3.1C89.4,101.8,88.6,101.4,87.6,102z"
				/>
		</g>
		<g>
			<path class="st2" d="M99.3,102.8c-1.1,0.6-1.9,2-1.9,3.1c0,1.1,0.8,1.6,1.9,1c1-0.6,1.9-2,1.9-3.1
				C101.2,102.7,100.3,102.2,99.3,102.8z"/>
		</g>
		<g>
			<path class="st2" d="M91.9,106.9c-1,0.6-1.9,2-1.9,3.1c0,1.1,0.9,1.6,1.9,1c1-0.6,1.9-2,1.9-3.1
				C93.8,106.7,92.9,106.3,91.9,106.9z"/>
		</g>
		<g>
			<path class="st2" d="M84.5,110.9c-1,0.6-1.9,2-1.9,3.1c0,1.1,0.9,1.6,1.9,1c1-0.6,1.9-2,1.9-3.1
				C86.4,110.8,85.5,110.3,84.5,110.9z"/>
		</g>
		<g>
			<path class="st2" d="M99.3,110.4c-1.1,0.6-1.9,2-1.9,3.1c0,1.1,0.8,1.6,1.9,1c1-0.6,1.9-2,1.9-3.1
				C101.2,110.3,100.4,109.9,99.3,110.4z"/>
		</g>
		<g>
			<path class="st2" d="M91.9,114.5c-1,0.6-1.9,2-1.9,3.1c0,1.1,0.9,1.6,1.9,1c1-0.6,1.9-2,1.9-3.1C93.8,114.4,93,113.9,91.9,114.5z
				"/>
		</g>
		<g>
			<path class="st2" d="M84.5,118.6c-1,0.6-1.9,2-1.9,3.1c0,1.1,0.9,1.6,1.9,1c1-0.6,1.9-2,1.9-3.1C86.4,118.5,85.6,118,84.5,118.6z
				"/>
		</g>
		<g>
			<path class="st2" d="M99.3,118.6c-1.1,0.6-1.9,2-1.9,3.1c0,1.1,0.8,1.6,1.9,1c1-0.6,1.9-2,1.9-3.1
				C101.2,118.5,100.4,118,99.3,118.6z"/>
		</g>
		<g>
			<path class="st2" d="M91.9,122.6c-1,0.6-1.9,2-1.9,3.1c0,1.1,0.9,1.6,1.9,1c1-0.6,1.9-2,1.9-3.1C93.8,122.5,93,122.1,91.9,122.6z
				"/>
		</g>
		<g>
			<path class="st2" d="M84.5,126.7c-1,0.6-1.9,2-1.9,3.1c0,1.1,0.9,1.6,1.9,1c1-0.6,1.9-2,1.9-3.1
				C86.4,126.6,85.6,126.1,84.5,126.7z"/>
		</g>
		<g>
			<path class="st2" d="M80.2,106c-1,0.6-1.9,2-1.9,3.1c0,1.1,0.8,1.6,1.9,1c1-0.6,1.9-2,1.9-3.1C82.1,105.9,81.2,105.5,80.2,106z"
				/>
		</g>
	</g>
	<polyline class="st0" points="38,89.6 23.7,127 33.8,161.6 	"/>
	<path class="st1" d="M34.4,96.4L36,97c1.7,0.6,3.6-0.1,4.3-1.8l2-4.7c0.9-2-0.2-4.4-2.3-5.2l0,0c-2.1-0.8-4.6,0.2-5.4,2.2l-2,4.7
		C31.8,93.9,32.7,95.8,34.4,96.4z"/>
	<path class="st1" d="M19.4,127c0,2.2,1.9,4.1,4.3,4.1c2.4,0,4.3-1.8,4.3-4.1c0-2.2-1.9-4.1-4.3-4.1C21.3,123,19.4,124.8,19.4,127z"
		/>
	<path class="st0" d="M40.8,167.7l-1.3-4.1c-0.8-2.6-3.7-4.1-6.5-3.3h0c-2.7,0.8-4.3,3.6-3.5,6.2l1.3,4.1"/>
</g>
<g>
	<g>
		<polygon class="st2" points="327.9,55.8 260.7,94.9 247.3,87.2 314.5,48.1 		"/>
	</g>
	<g>
		<polygon class="st5" points="327.9,55.8 327.9,77.1 260.6,116.2 260.7,94.9 		"/>
	</g>
	<g>
		<polygon class="st3" points="260.7,94.9 260.6,116.2 247.2,108.5 247.3,87.2 		"/>
	</g>
	<g>
		<polygon class="st6" points="405.7,100.8 338.5,139.8 260.7,94.9 327.9,55.8 		"/>
	</g>
	<g>
		<polygon class="st7" points="405.7,100.8 405.6,122.1 338.4,161.1 338.5,139.8 		"/>
	</g>
	<g>
		<polygon class="st8" points="338.5,139.8 338.4,161.1 260.6,116.2 260.7,94.9 		"/>
	</g>
	
		<rect x="350.3" y="15.4" transform="matrix(0.613 0.7901 -0.7901 0.613 182.5814 -261.733)" class="st3" width="16.3" height="80.2"/>
	<polygon class="st2" points="313.4,93.3 314.7,92.8 313.3,91.6 	"/>
	<polygon class="st2" points="310.7,89.8 311.4,88.8 312.6,90 312.1,90.7 	"/>
	<path class="st1" d="M310.7,89.8l-2.6,3.9c-0.4,0.6,0.2,1.4,0.9,1.2l4.4-1.6c0.5-0.2,0.7-0.9,0.3-1.3c-0.6-0.7-1.2-1.4-1.7-2.2
		C311.7,89.3,311,89.3,310.7,89.8z"/>
	<path class="st2" d="M326.3,80.5l-5-6.4l-9.9,14.6c0.8,1.5,1.9,3,3.2,4.1l16.7-6L326.3,80.5z"/>
	<g>
		<path class="st2" d="M396.3,33.4c0.5,3.6-1.8,5.5-5.2,4.1c-3.4-1.4-6.5-5.4-7-9.1c-0.5-3.6,1.8-5.5,5.2-4.1
			C392.6,25.7,395.8,29.8,396.3,33.4z"/>
	</g>
	<g>
		<path class="st3" d="M392.7,31.9c0.2,1.5-0.8,2.2-2.1,1.7c-1.4-0.6-2.7-2.2-2.9-3.7c-0.2-1.5,0.8-2.2,2.1-1.7
			C391.2,28.8,392.5,30.5,392.7,31.9z"/>
	</g>
	<g>
		<path class="st3" d="M332.9,82.6c0.5,3.6-1.8,5.5-5.2,4.1c-3.4-1.4-6.5-5.4-7-9.1c-0.5-3.6,1.8-5.5,5.2-4.1
			C329.3,74.9,332.4,78.9,332.9,82.6z"/>
	</g>
</g>
<g>
	<polygon class="st3" points="525.8,48.5 526.2,180.6 593.8,141.6 593.5,9.4 	"/>
	<polygon class="st4" points="530.4,54.8 530.7,155.9 589.3,122.1 589,21 	"/>
	<polygon class="st2" points="525.8,48.5 517.1,43.4 517.5,175.6 526.2,180.6 	"/>
	<polygon class="st9" points="593.5,9.4 584.8,4.4 517.1,43.4 525.8,48.5 	"/>
	<g>
		<path class="st1" d="M562.4,146.4c-1.4,0.8-2.6,2.8-2.6,4.4c0,1.6,1.2,2.3,2.6,1.5c1.4-0.8,2.6-2.8,2.6-4.5
			C565,146.3,563.8,145.6,562.4,146.4z"/>
	</g>
	<g>
		<g>
			<path class="st10" d="M563.1,87.3L563.1,87.3c2.7,1.6,5.3,3.1,8,4.7l0,0c0,0,0,0,0,0C568.4,90.4,565.8,88.9,563.1,87.3
				c2.7,1.6,5.4,3.1,8,4.7c0.1-0.1,0.2-0.2,0.3-0.3c-2.7-1.5-5.3-3.1-8-4.6c2.7,1.5,5.3,3.1,8,4.6l0,0l-8-4.7
				C563.2,87.1,563.2,87.2,563.1,87.3z"/>
		</g>
		<g>
			<path class="st11" d="M567.2,80.4c-0.2,0.2-0.3,0.4-0.5,0.6l8,4.7c0.2-0.2,0.3-0.4,0.5-0.6C572.8,83.6,569.6,81.8,567.2,80.4z"/>
		</g>
		<g>
			<path class="st11" d="M566.7,81c-1.2,1.8-2,4.5-3.4,6l8,4.7c1.4-1.6,2.1-4.3,3.4-6C572.3,84.3,569.1,82.4,566.7,81z"/>
		</g>
		<g>
			<path class="st9" d="M574.7,85.7c-1.2,1.8-2,4.5-3.4,6l0,23.5l3.9,0.7L575.2,85C575,85.2,574.9,85.4,574.7,85.7z"/>
		</g>
		<g>
			<path class="st10" d="M563.1,87.3c-0.2,0.2-0.5,0.4-0.8,0.6c2.7,1.6,5.3,3.1,8,4.7c0.3-0.2,0.5-0.3,0.8-0.6
				C568.4,90.4,565.7,88.9,563.1,87.3z"/>
		</g>
		<g>
			<path class="st10" d="M562.3,87.9c-1.4,0.8-2.9,0.6-4.3,1.5l8,4.7c1.4-0.8,3-0.7,4.3-1.5l0,0C567.6,91,565,89.4,562.3,87.9
				L562.3,87.9z"/>
		</g>
		<g>
			<path class="st9" d="M566,94c-1.4,0.8-3,2.8-4.3,3.6c-0.2,0.1-0.3,0.2-0.5,0.2l0,23.3l5.1-6.8l5.1,0.9l0-23.5
				c-0.1,0.1-0.2,0.2-0.3,0.3c-0.2,0.2-0.5,0.4-0.8,0.6C568.9,93.3,567.4,93.2,566,94z"/>
		</g>
		<g>
			<path class="st10" d="M553.1,93.1c2.7,1.6,5.3,3.1,8,4.7c0.2-0.1,0.3-0.1,0.5-0.2c-2.7-1.5-5.3-3.1-8-4.6c2.7,1.5,5.3,3.1,8,4.6
				l0,0c1.4-0.8,2.9-2.7,4.3-3.6l-8-4.7c-1.4,0.8-3,2.8-4.3,3.6C553.4,93,553.3,93.1,553.1,93.1z"/>
		</g>
		<g>
			<path class="st11" d="M553.1,93.1c-0.1,0-0.2,0.1-0.3,0.1l8,4.7c0.1,0,0.2,0,0.3-0.1C558.7,96.4,555.5,94.5,553.1,93.1z"/>
		</g>
		<g>
			<path class="st12" d="M549.6,91.3c0.7,0.4,1.3,1.2,2,1.7l8,4.7c-0.7-0.4-1.3-1.2-2-1.7C555.2,94.6,552,92.7,549.6,91.3z"/>
		</g>
		<g>
			<path class="st11" d="M552.8,93.2c-0.5,0.1-0.9,0-1.2-0.2l8,4.7c0.4,0.2,0.7,0.3,1.2,0.2L552.8,93.2L552.8,93.2z"/>
		</g>
		<g>
			<path class="st9" d="M560.9,97.9c-1.6,0.3-2.3-1.7-3.6-2.1l0.1,30.5l3.9-5.2l0-23.3C561,97.8,560.9,97.8,560.9,97.9z"/>
		</g>
		<g>
			<path class="st11" d="M549.6,91.3c-0.1-0.1-0.3-0.1-0.4-0.2l8,4.7c0.2,0,0.3,0.1,0.4,0.2C555.3,94.6,552,92.7,549.6,91.3z"/>
		</g>
		<g>
			<polygon class="st13" points="557.2,95.8 549.2,91.1 549.3,121.7 557.3,126.3 			"/>
		</g>
		<g>
			<path class="st12" d="M557.9,85.5c-3.2,1.8-6.1,2-8.2,0.8c2.7,1.6,5.3,3.1,8,4.7c2.1,1.2,5,1,8.2-0.8
				C563.5,88.7,560.3,86.9,557.9,85.5z"/>
		</g>
		<g>
			<path class="st14" d="M549.7,86.3l8,4.7c-2.1-1.2-3.4-3.8-3.4-7.4c0-7.3,5.1-16.2,11.5-19.9l-8-4.7c-6.4,3.7-11.5,12.6-11.5,19.9
				C546.4,82.5,547.7,85.1,549.7,86.3z"/>
		</g>
		<g>
			<path class="st12" d="M549.8,86.3C549.8,86.3,549.8,86.3,549.8,86.3l8,4.6c0,0,0,0,0,0C555.1,89.4,552.5,87.8,549.8,86.3z"/>
		</g>
		<g>
			<path class="st12" d="M569.4,65.5c0,7.3-5.1,16.2-11.5,19.9l8,4.7c6.4-3.7,11.5-12.6,11.5-19.9c0-3.6-1.3-6.2-3.4-7.4l-8-4.7
				C568.1,59.4,569.4,61.9,569.4,65.5z"/>
		</g>
		<g>
			<path class="st2" d="M566.6,53.3c-0.2,0-0.3-0.1-0.5-0.2l8,4.7c0.1,0.1,0.3,0.2,0.5,0.2c1.2,0.3,3.3-0.7,4.4-0.1l-8-4.7
				C569.9,52.5,567.9,53.6,566.6,53.3z"/>
		</g>
		<g>
			<path class="st14" d="M574.1,62.8l-8-4.7c-2.1-1.2-5-1-8.2,0.8l8,4.7C569.1,61.8,572,61.6,574.1,62.8z"/>
		</g>
		<g>
			<path class="st15" d="M552.5,73.4c1-2.1,3.3-3.5,4.6-5.4c1.3-1.9,2.1-4.8,3.7-6.3c0.2-0.2,0.5-0.4,0.8-0.6
				c1.4-0.8,2.9-0.6,4.3-1.5c1.4-0.8,3-2.8,4.3-3.5c0.3-0.2,0.5-0.3,0.8-0.3c1.6-0.3,2.4,1.7,3.7,2.1c1.3,0.3,3.6-0.9,4.6,0.1
				c1,1,0.3,3.9,0.8,5.4c0.5,1.5,2.3,2,2.3,4c0,2-1.8,4.6-2.3,6.6c-0.5,2.1,0.2,4.3-0.8,6.3c-0.8,1.8-2.7,3.1-4.1,4.7
				c-0.2,0.2-0.3,0.4-0.5,0.6c-1.2,1.8-2,4.5-3.4,6c-0.1,0.1-0.2,0.2-0.3,0.3c-0.2,0.2-0.5,0.4-0.8,0.6c-1.4,0.8-2.9,0.6-4.3,1.5
				c-1.4,0.8-3,2.8-4.3,3.6c-0.2,0.1-0.3,0.2-0.5,0.2c-0.1,0-0.2,0.1-0.3,0.1c-1.6,0.3-2.3-1.7-3.7-2.1c-1.3-0.4-3.6,0.9-4.6-0.1
				c-1-1-0.3-3.9-0.8-5.4c-0.5-1.5-2.3-2-2.3-4c0-2,1.8-4.6,2.3-6.6C552.2,77.6,551.6,75.5,552.5,73.4z M565.9,90.1
				c6.4-3.7,11.5-12.6,11.5-19.9c0-7.3-5.2-10.3-11.6-6.6c-6.4,3.7-11.5,12.6-11.5,19.9C554.4,90.8,559.6,93.8,565.9,90.1"/>
		</g>
		<g>
			
				<ellipse transform="matrix(0.5025 -0.8646 0.8646 0.5025 215.1157 527.5299)" class="st16" cx="565.9" cy="76.9" rx="16.3" ry="9.4"/>
		</g>
		<g>
			<path class="st2" d="M544.6,91.1c0.1,0.1,0.1,0.1,0.2,0.2l8,4.7c-0.1,0-0.2-0.1-0.2-0.2c-1-1-0.3-3.9-0.8-5.4
				c-0.5-1.5-2.3-2-2.3-4c0-2,1.8-4.6,2.3-6.6l-8-4.7c-0.5,2-2.3,4.7-2.3,6.6c0,2,1.8,2.5,2.3,4C544.3,87.2,543.6,90.1,544.6,91.1z"
				/>
		</g>
		<g>
			<path class="st2" d="M552.7,57.1c-1.6,1.5-2.3,4.4-3.6,6.2c2.7,1.6,5.3,3.1,8,4.7c1.3-1.9,2-4.8,3.6-6.2c0.2-0.2,0.5-0.4,0.8-0.6
				l0,0c1.4-0.8,2.9-0.6,4.3-1.5l0,0c1.4-0.8,3-2.8,4.3-3.5c0.3-0.2,0.5-0.3,0.8-0.3c0.5-0.1,0.9,0,1.2,0.2l-8-4.7
				c-0.4-0.2-0.7-0.3-1.2-0.2c-0.2,0-0.5,0.2-0.8,0.3c-1.4,0.8-2.9,2.7-4.3,3.5c-1.4,0.8-3,0.7-4.3,1.5l0,0
				C553.3,56.7,553,56.9,552.7,57.1z"/>
		</g>
		<g>
			<path class="st2" d="M544.5,68.8c-1,2.1-0.3,4.2-0.8,6.3l8,4.7c0.5-2.1-0.1-4.3,0.8-6.3c1-2.1,3.3-3.5,4.6-5.4l0,0c0,0,0,0,0-0.1
				c-2.7-1.6-5.3-3.1-8-4.7c0,0,0,0,0,0.1l0,0C547.8,65.3,545.5,66.7,544.5,68.8z"/>
		</g>
	</g>
</g>
</svg>
