<?xml version="1.0" encoding="utf-8"?>
<!-- Generator: Adobe Illustrator 25.2.1, SVG Export Plug-In . SVG Version: 6.00 Build 0)  -->
<svg version="1.1" id="레이어_1" xmlns="http://www.w3.org/2000/svg" xmlns:xlink="http://www.w3.org/1999/xlink" x="0px"
	 y="0px" viewBox="0 0 771 876.1" style="enable-background:new 0 0 771 876.1;" xml:space="preserve">
<style type="text/css">
	.st0{fill:#5D66F5;}
	.st1{fill:#FFFFFF;}
</style>
<g>
	<g>
		<path class="st0" d="M771,634.2V241.9c0-16.3-8.7-31.4-22.9-39.6L408.4,6.1c-14.2-8.2-31.6-8.2-45.7,0L22.9,202.3
			C8.7,210.5,0,225.6,0,241.9v392.3c0,16.3,8.7,31.4,22.9,39.6L362.6,870c14.2,8.2,31.6,8.2,45.7,0l339.8-196.2
			C762.3,665.7,771,650.6,771,634.2z"/>
		<path class="st1" d="M642.4,408.8l-0.1-60.2l-0.1-36.9c-1.3-13.1-8.1-25-18.8-32.7l-33-19.1l-51.1-29.6l-23-13.4L488,200.4
			l-51.5-29.7l-28.1-16.2c-14.1-8.2-31.6-8.2-45.7,0l-28.9,16.7l0.1,58.6l0.1,60l0.1,59l0.1,59.7l0.1,59.2l0.1,59.5l0.1,59.5
			l-51.4-29.8L231.6,527l-0.1-59l-0.1-60l-0.1-58.7l-0.1-60.2l-0.2-58.5l-50.4,29.2l-33.5,19.4c-11.7,8.6-18.6,22.3-18.6,36.8v55
			l0.1,37.8l0.1,58.5l0.1,60.2l0.1,38.2c1.5,12.3,8,23.5,17.9,30.9l33.9,19.6l51.1,29.6l51.3,29.8l27.5,15.9l24,13.9l28,16.2
			c14.1,8.2,31.6,8.2,45.7,0l29.1-16.8l-0.1-58.6l-0.1-60l-0.1-59l50.9,29.5l52,30.2l50.5,29.3l33.3-19.3
			c11.8-8.6,18.7-22.3,18.7-36.9V431.5L642.4,408.8z M488,319.2l51.5,29.9l0.1,59l0.1,60L488,438l-51.1-29.6l-0.1-59.5l-0.1-59.5
			L488,319.2z"/>
	</g>
</g>
</svg>
