<?xml version="1.0" encoding="UTF-8"?>
<svg data-bbox="0 0.002 771 876.126" viewBox="0 0 770.98 876.1" xmlns="http://www.w3.org/2000/svg" data-type="color">
    <g>
        <g>
            <path d="M771 634.21V241.89a45.71 45.71 0 0 0-22.87-39.6L408.36 6.13a45.74 45.74 0 0 0-45.74 0L22.87 202.29A45.71 45.71 0 0 0 0 241.89v392.32a45.71 45.71 0 0 0 22.87 39.6L362.62 870a45.74 45.74 0 0 0 45.74 0l339.75-196.19a45.71 45.71 0 0 0 22.89-39.6z" fill="#ffffff" data-color="1"/>
            <path d="M642.44 408.76l-.11-60.21-.07-36.89A45.71 45.71 0 0 0 623.45 279l-33-19.11-51.12-29.64-23.05-13.36L488 200.45l-51.5-29.72-28.1-16.23a45.72 45.72 0 0 0-45.73 0l-28.94 16.71.11 58.6.11 60 .11 59 .1 59.7.11 59.22.11 59.46.11 59.47-51.35-29.77L231.6 527l-.11-59-.11-60-.1-58.72-.11-60.2-.17-58.46-50.37 29.2-33.51 19.43a45.69 45.69 0 0 0-18.64 36.83v55l.07 37.77.1 58.48.11 60.2.07 38.18a45.7 45.7 0 0 0 17.92 30.91l33.88 19.64 51.12 29.64 51.33 29.76 27.51 15.94 24 13.89 28 16.15a45.72 45.72 0 0 0 45.73 0l29.07-16.78-.11-58.59-.11-60-.1-59L488 556.82 540 587l50.47 29.26 33.33-19.33A45.7 45.7 0 0 0 642.48 560V431.48zM488 319.22l51.55 29.89.1 59 .11 60L488 438l-51.13-29.64-.1-59.46-.11-59.46z" fill="#5d66f5" data-color="2"/>
        </g>
    </g>
</svg>
