<?xml version="1.0" encoding="utf-8"?>
<!-- Generator: Adobe Illustrator 25.2.1, SVG Export Plug-In . SVG Version: 6.00 Build 0)  -->
<svg version="1.1" id="Layer_2" xmlns="http://www.w3.org/2000/svg" xmlns:xlink="http://www.w3.org/1999/xlink" x="0px" y="0px"
	 viewBox="0 0 658 470.7" style="enable-background:new 0 0 658 470.7;" xml:space="preserve">
<style type="text/css">
	.st0{opacity:0.6;fill:url(#SVGID_1_);}
	.st1{opacity:0.6;fill:url(#SVGID_2_);}
	.st2{fill:#EFCCC2;}
	.st3{fill:#06314C;}
	.st4{fill:#8BB0FE;}
	.st5{fill:#E5A8A8;}
	.st6{fill:#DE9F7E;}
	.st7{fill:#012336;}
	.st8{fill:#FFFFFF;}
	.st9{fill:none;stroke:#F6EBE5;stroke-linecap:round;stroke-linejoin:round;stroke-miterlimit:10;}
	.st10{fill:#574260;}
	.st11{fill:#EEEDF7;}
	.st12{fill:url(#SVGID_3_);}
	.st13{fill:url(#SVGID_4_);}
	.st14{fill:none;stroke:url(#SVGID_5_);stroke-miterlimit:10;}
	.st15{fill:none;stroke:url(#SVGID_6_);stroke-miterlimit:10;}
	.st16{fill:none;stroke:url(#SVGID_7_);stroke-miterlimit:10;}
	.st17{fill:none;stroke:url(#SVGID_8_);stroke-miterlimit:10;}
	.st18{fill:none;stroke:url(#SVGID_9_);stroke-miterlimit:10;}
	.st19{fill:none;stroke:url(#SVGID_10_);stroke-miterlimit:10;}
	.st20{fill:none;stroke:url(#SVGID_11_);stroke-miterlimit:10;}
	.st21{fill:none;stroke:#FFFFFF;stroke-linecap:round;stroke-linejoin:round;stroke-miterlimit:10;}
	.st22{fill:url(#SVGID_12_);}
	.st23{fill:none;stroke:url(#SVGID_13_);stroke-miterlimit:10;}
	.st24{fill:none;stroke:url(#SVGID_14_);stroke-miterlimit:10;}
	.st25{fill:none;stroke:url(#SVGID_15_);stroke-miterlimit:10;}
	.st26{fill:none;stroke:url(#SVGID_16_);stroke-miterlimit:10;}
	.st27{fill:none;stroke:url(#SVGID_17_);stroke-miterlimit:10;}
	.st28{fill:none;stroke:url(#SVGID_18_);stroke-miterlimit:10;}
	.st29{fill:none;stroke:url(#SVGID_19_);stroke-miterlimit:10;}
	.st30{fill:url(#SVGID_20_);}
	.st31{fill:url(#SVGID_21_);}
	.st32{fill:none;stroke:#FFFFFF;stroke-miterlimit:10;}
	.st33{fill:url(#SVGID_22_);}
	.st34{fill:url(#SVGID_23_);}
	.st35{fill:url(#SVGID_24_);}
	.st36{fill:#F6EBE5;}
	.st37{fill:url(#SVGID_25_);}
	.st38{fill:url(#SVGID_26_);}
	.st39{fill:url(#SVGID_27_);}
	.st40{fill:url(#SVGID_28_);}
	.st41{fill:url(#SVGID_29_);}
	.st42{fill:url(#SVGID_30_);}
	.st43{fill:url(#SVGID_31_);}
	.st44{fill:url(#SVGID_32_);}
	.st45{fill:url(#SVGID_33_);}
	.st46{fill:url(#SVGID_34_);}
	.st47{fill:url(#SVGID_35_);}
	.st48{fill:url(#SVGID_36_);}
	.st49{opacity:0.6;fill:none;stroke:#FFFFFF;stroke-width:2;stroke-linecap:round;stroke-miterlimit:10;}
	.st50{fill:url(#SVGID_37_);}
	.st51{fill:url(#SVGID_38_);}
	.st52{fill:url(#SVGID_39_);}
</style>
<linearGradient id="SVGID_1_" gradientUnits="userSpaceOnUse" x1="171.5858" y1="430.7635" x2="482.4192" y2="119.9301">
	<stop  offset="0" style="stop-color:#D3C9FB"/>
	<stop  offset="1" style="stop-color:#B7E0E6"/>
</linearGradient>
<path class="st0" d="M567.3,206c-20.2-25.3-51.6-45.8-83.7-42.4c-46.6,4.9-62.8,44.2-78.2,54.3c-14.4,9.4-29.4,3-44.9,10.6
	c-2.5-3.4-5.2-6.6-7.9-9.6c-10.8-11.8-23.3-21.3-36.1-30.1c-20.2-14-41.5-26.6-64.4-32.9c-25.4-7-55.1-10.2-81-5.1
	c-21.6,4.3-42.7,22.2-60.5,36c-14,10.9-27.8,23.3-36.7,39.9c-13.1,24.3-14.1,56.1-4.4,82.5c9.7,26.3,18.2,44.6,49.8,63.6
	c49,29.5,129.1,54.4,210,55.3c75.2,0.8,99.6-7.8,132.6-14.8c17.1-3.6,34.1-8.6,48.8-18c14.6-9.3,26.3-22.4,37.3-35.8
	c16.4-20,31.9-41.4,39.3-66.2C597.5,258.7,589.8,234.3,567.3,206z"/>
<linearGradient id="SVGID_2_" gradientUnits="userSpaceOnUse" x1="129.3446" y1="143.0485" x2="244.8669" y2="72.0288" gradientTransform="matrix(0.9727 -0.2321 0.2321 0.9727 -19.7878 45.586)">
	<stop  offset="0" style="stop-color:#D3C9FB"/>
	<stop  offset="1" style="stop-color:#B7E0E6"/>
</linearGradient>
<path class="st1" d="M102.4,107.7c3.4,18.3,19.9,31.3,36.8,38.9c22.3,10,47,13.5,71.4,14.1c15.4,0.4,31.9-0.8,44-10.3
	c15.5-12.2,18.9-35.7,11.4-53.9c-7.5-18.2-23.9-31.6-41.7-40.2c-22.1-10.7-56.9-20.2-80.9-10.5C121.4,54.8,97.9,83.2,102.4,107.7z"
	/>
<g>
	<path class="st2" d="M477.8,216.6l-2.7,9.3c0,0-0.9,4.3,1.3,5.7c2.2,1.4,6.1,0.8,6.7,0c0.6-0.8,3.2-8.2,3.2-8.2L477.8,216.6z"/>
	<path class="st2" d="M539.2,239.5c0,0,6,2.3,9,2.5c2.9,0.2,4.4-1.2,4.5-3.4c0.1-2.2-2.1-12.1-3.8-15.8l-10.2,2.9l1.7,5.7
		L539.2,239.5z"/>
	<g>
		<path class="st3" d="M520.9,178c-0.3,1.2-0.9,2.4-1.9,3.2c-1.4,1.1-3.6,0.9-5-0.1c-1.5-1-2.4-2.7-2.7-4.5
			c-0.5-2.5,0.9-3.7,2.5-5.4c1-1.1,1.8-3,3.5-2.6C520.7,169.4,521.6,175.2,520.9,178z"/>
		<path class="st3" d="M494.3,158.9c1-2.9,3.9-4.9,6.5-6c4.5-1.9,9.9-1.3,13.7,2.1c3.8,3.4,5.3,9.8,2.9,14.4c-1.1,2-2.8,3.6-4.4,5
			c-1.1,1-2.3,2-3.7,2.5c-2.2,0.8-4.4-1.7-6.7-1C496.3,177.7,491.9,165.9,494.3,158.9z"/>
		<path class="st4" d="M515.6,184.4l10.4,2.9c0,0,5.8,2.1,6.4,7c0.6,5-2.8,27.9-3.6,38.5c-0.9,10.7,2.1,17.9,2.1,17.9
			s-8.9,3.8-24.1,3.7c-9.8,0-14.7-4-14.7-4s4.1-12.3,1.5-22.7c-1.3-5.2-2-21.2-2-26.1c0-5,1-9.9,3.4-12.6s8.9-3.4,8.9-3.4
			L515.6,184.4z"/>
		<path class="st4" d="M498.6,187.3c0,0-10,1.3-13,4.5S475.2,224,475.2,224l10.1,3l7.3-18L498.6,187.3z"/>
		<path class="st2" d="M503.5,187.6c-0.1,1-0.3,1.4-0.3,1.4c1.8,4.7,5.9,6.1,5.9,6.1c7-1,8.2-8.7,8.2-8.7c-5-4.7-4.2-17.8-4.2-17.8
			l-7.6,8.1l-3.1,3.3C503.6,183.8,503.7,186.2,503.5,187.6z"/>
		<path class="st5" d="M503.5,187.6c6.1-3.1,8.3-12.4,8.3-12.4l-6.4,1.4l-3.1,3.3C503.6,183.8,503.7,186.2,503.5,187.6z"/>
		<path class="st2" d="M512,176.8c-1.5,2.3-6.9,5.8-8,5.9c-1.1,0.1-2.3,0-3.3-0.6c-0.9-0.6-1.6-1.5-2-2.5c-1.7-4.7-3.6-9.4-3.9-14.4
			c-0.1-2.1-0.2-4.4,0.9-6.3c0.9-1.5,2.4-2.6,4-3.4c1.8-0.9,3.7-1.4,5.7-1.5c2-0.1,4,0.4,5.7,1.4c2.7,1.7,4.1,4.7,4.5,7.6
			c0.3,2.7-2.1,5.1-2.6,7.8C512.5,173.1,513.4,174.8,512,176.8z"/>
		<path class="st4" d="M523.2,187.5c0,0,12.3-1.8,16,6.5s11,30,11,30l-11.9,3.6L525,203.1C525,203.1,517.5,192.7,523.2,187.5z"/>
		<path class="st3" d="M495.6,163.5c0.5-1.4,1.2-2.8,1.7-4.2c0.1-0.3,0.2-0.7,0.2-1c0-0.3-0.1-0.7-0.4-0.9c-0.5-0.4-1.2-0.3-1.7,0.1
			c-0.6,0.5-0.9,1.4-1.1,2.2c-0.3,1.6-0.5,3.2-0.4,4.8c0,0.4,0.1,0.8,0.1,1.2c0,0.3,0,0.9,0.2,1.2c0.4,0.7,0.6-0.4,0.7-0.7
			C495,165.2,495.3,164.3,495.6,163.5z"/>
		<path class="st6" d="M537.9,402.1l0.6,1.6l0.6,9.8l-10.7,0c0,0,1.5-5.5,1.3-8.6c-0.2-3.1,2.9-3.3,2.9-3.3L537.9,402.1z"/>
		<path class="st7" d="M489.6,415.8l-0.7,4.4c0,0-0.6,1.9-2.4,2.6s-10,3.6-11.7,3.5c-1.7-0.2-2.6-1.4-2.8-3.4
			C471.9,420.9,489.6,415.8,489.6,415.8z"/>
		<path class="st7" d="M497.1,407.6c0,0,0.5,4,0,5.4c-0.5,1.4-5.2,4-5.2,4l-2.3-1.2L497.1,407.6z"/>
		<path class="st2" d="M530.2,405.9l-1.3-14.6l9,0.5c-0.1,0.2,0,14.6,0,14.6l0.6,5.9l-7.1,2l-1.2-5L530.2,405.9L530.2,405.9z"/>
		<path class="st2" d="M487.7,403.2c0-4.3,0.1-11.3,0-11.5l9-0.5l-1,10.7l0,0l0.4,1.5l-0.7,2.1l-0.1,0.8l-0.2,0l-1.6,4.8l-5.8,3.1
			l-5.9-2L487.7,403.2z"/>
		<path class="st8" d="M530.8,250.3c0,0,5.6,19.4,5.9,33.7c0.2,14.3,1,50.9,1,50.9s1.6,17,1.6,31.3c0,14.3-0.1,29.3-0.1,29.3
			l-10.8,0c0,0-2.4-24.9-4.3-35.1s-1.6-23.8-1.6-23.8s-7-39.1-10.2-50.8l-6.5-12.7l1.7-21.1L530.8,250.3z"/>
		<path class="st8" d="M491.4,250.3c0,0-2.4,15.4-3,27.1c-0.6,11.8-1.5,56.5-1.5,56.5s0.2,6.5,0,14.8c-0.2,8.3,0.5,46.8,0.5,46.8
			l10,0c0,0,3.5-33.5,3.8-46.8c0.2-13.3,4.3-42.5,6.1-49.9c1.9-7.4,5.7-16.4,5.7-16.4l-1.9-30.7L491.4,250.3z"/>
		<path class="st3" d="M531.4,249.5l1.2,4.7c0,0-0.3,0.4-1.2,0.6s-21.1,1.9-26.3,1.5c-5.2-0.4-14.6-1.9-14.6-1.9l1.1-4.9
			c0,0,10.8,1.1,18.5,1.5C517.8,251.3,531.4,249.5,531.4,249.5z"/>
		<polygon class="st8" points="531,255.9 529,256.4 528.2,249.5 530,249.2 		"/>
		<polygon class="st8" points="519.8,257.2 517.5,257.3 517.3,250.3 519.4,250.2 		"/>
		<polygon class="st8" points="499.4,257.1 497,256.9 497.6,249.5 499.7,249.8 		"/>
		<path class="st9" d="M534.4,274.2c0,0-5.2-2.3-7.2-15.2"/>
		<path class="st9" d="M494.5,259c0,0,0.2,9.9-4.2,14.6"/>
		<path class="st7" d="M539.4,415c0,0,0.6,4-0.5,6.8s-2.7,7.1-6,7.6c-3.3,0.4-4.2-0.8-4.6-1.5c-0.4-0.7-1.2-7.2-0.8-10L539.4,415z"
			/>
		<path class="st10" d="M534,406.3c2.2,0.1,4,1.7,4.4,3.8c0.3,1.6,0.7,3.6,1,4.5c0.5,1.7-0.7,5.6-2.1,8.3s-3.7,5-5.8,5
			c-2,0-2.9-1.4-3.3-2.8c-0.4-1.4-0.5-5.6-0.7-7.2c-0.2-1.6,2.3-9.1,2.3-9.1S530.7,406.1,534,406.3z"/>
		<path class="st10" d="M495.7,402c0,0,1.2,2.3,1.4,5.1c0.2,2.9,0,3.3,0,3.3s-0.5,1.2-2.1,1.9c-1.6,0.7-4.8,3.2-5.6,5
			c-0.8,1.8-1.6,3.8-4.4,4.8c-2.7,0.9-8.4,2.8-10,2.8c-1.6,0-2.6-1.2-3-2.1c-0.3-0.9,4.7-5.8,6.2-7.9c1.5-2.1,5.4-5.7,6.2-8.1
			s4.4-1.2,5.8,0.5c1.4,1.7,0.2,4.6,0.2,4.6s3.5-4.3,4.1-5.7C495.1,404.8,496.1,404.2,495.7,402z"/>
		<polygon class="st5" points="537.9,399.2 529.3,396.1 537.9,396.1 		"/>
		<polygon class="st5" points="496,398.8 487.7,396 496.2,396 		"/>
		<polygon class="st11" points="499,391.4 497.9,397 485.4,395.8 485.6,390 		"/>
		<polygon class="st11" points="540.2,390.5 540.4,396.2 527.3,396.7 526.3,391 		"/>
		<path class="st3" d="M496.6,158.7c0.7,0.9,1.8,1.2,2.9,1.3c1.1,0.1,2.2-0.1,3.3-0.1c1.1,0,2.3,0.2,3.1,1c1.6,1.5,1.1,4.2,2.4,5.9
			c1,1.3,2.9,1.7,3.7,3.1c0.5,1,0.6,2.4,1.7,2.6c0.6,0.1,1.2-0.2,1.6-0.6c3.1-2.6,4-7.3,2.5-11.1c-1.5-3.8-5.1-6.5-9-7.4
			c-2.9-0.6-6-0.3-8.8,0.7C498.3,154.8,494.7,156.2,496.6,158.7z"/>
		<path class="st2" d="M512.2,165.3c0.7-0.3,1.6,0,2,0.6c0.4,0.6,0.4,1.4,0.2,2.1c-0.4,1.6-1.5,3.1-2.9,4c-0.1,0.1-0.2,0.1-0.3,0.1
			c-0.1,0-0.1-0.2-0.2-0.3C510.7,170.2,510.2,166.1,512.2,165.3z"/>
		<path class="st3" d="M509.9,163.1c-0.4-2.4-1.8-4.6-3.8-6s-4.6-1.8-7-1.3c0.5,0.3-3.3,2.4-3.3,2.4c-0.9,2.3,0.4,5,2.3,6.5
			c2,1.5,4.5,2,7,2.3c1.3,0.2,2.6,0.3,3.9,0.3c0.3,0,0.6,0,0.8-0.3c0.1-0.2,0.1-0.4,0.1-0.6C510,165.4,510,164.2,509.9,163.1z"/>
	</g>
	<path class="st2" d="M551.3,235.4c0,0,1.6-4.3-10.7-7.1s-24.6-8.7-24.6-8.7l-2.5,7.2l24.5,12.3C538.1,239,549,244.6,551.3,235.4z"
		/>
	<path class="st6" d="M472.4,198.8c0,0,30.7,0.9,30.7,2.2s8,28.1,8,28.1l-29.4-2.3L472.4,198.8z"/>
	<polygon class="st2" points="513.6,226.7 507.5,224.6 511.4,215.1 516.1,219.5 517.1,223.4 	"/>
	<polygon class="st2" points="511.4,215.1 505.2,212.4 501.4,218.8 504.2,221.8 507.5,224.6 511.4,220.3 	"/>
	<path class="st2" d="M478.5,219.5c0.6-0.3,1.3-0.3,2-0.4c1.8-0.1,3.5-0.3,5.3-0.4c0.2,0,0.4,0,0.5,0.1c0.1,0.1,0.1,0.3,0,0.4
		c-0.2,0.6-0.9,0.9-1.5,1c-1.6,0.4-3.1,0.8-4.7,1.2c1.4-0.3,2.9-0.6,4.3-0.8c0.7-0.1,1.5-0.2,2.2,0c0.1,0.4-0.2,0.8-0.5,1
		c-0.3,0.2-0.7,0.4-1.1,0.5c-1.3,0.4-2.5,0.7-3.8,1.1c1.4-0.3,2.9-0.6,4.4-0.9c0.3,0,0.6-0.1,0.8,0.2c0.2,0.3-0.1,0.7-0.5,0.9
		c-1.2,0.7-2.5,1.2-3.8,1.4c0.9-0.2,1.8-0.4,2.7-0.6c0.3-0.1,0.8-0.1,0.9,0.2c0.2,0.3-0.2,0.7-0.5,0.9c-1.3,0.8-2.7,1.4-4.2,1.8
		c-0.6,0.2-1.4,0.3-1.9,0c-0.3-0.2-0.6-0.5-0.8-0.8C476.6,224.5,475.4,221,478.5,219.5z"/>
	<path class="st2" d="M500.6,210.5c-0.2,0-0.4-0.1-0.6,0c-0.2,0.1-0.4,0.3-0.4,0.5c0,0.2,0.2,0.4,0.4,0.5c1.9,1.4,3.9,2.7,5.9,3.9
		c0.8,0.5,1.8,0.2,1.8-0.9c0-0.8-0.6-1.1-1.2-1.5C504.7,211.9,502.7,210.9,500.6,210.5z"/>
	<path class="st2" d="M499.4,212c-0.2,0-0.4-0.1-0.6,0s-0.4,0.2-0.4,0.4c0,0.2,0.3,0.7,0.4,0.9c1.8,1.5,3.6,2.6,5.5,3.9
		c0.8,0.5,1.7,0.3,1.9-0.8c0.1-0.8-0.5-1.2-1.1-1.6C503.4,213.6,501.5,212.5,499.4,212z"/>
	<path class="st2" d="M498.4,213.8c-0.2-0.1-0.4-0.1-0.6,0c-0.2,0.1-0.4,0.2-0.4,0.4c0,0.2,0.3,0.7,0.4,0.9c1.8,1.6,3.5,2.7,5.4,4
		c0.8,0.5,1.7,0.3,1.9-0.7c0.1-0.8-0.5-1.2-1-1.6C502.4,215.5,500.5,214.3,498.4,213.8z"/>
	<path class="st2" d="M499.1,216.2c-0.2,0-0.4-0.1-0.6,0s-0.4,0.2-0.4,0.4c0,0.2,0.3,0.7,0.4,0.9c1.8,1.5,3.5,2.6,5.5,4
		c0.8,0.5,1.7,0.3,1.9-0.7c0.1-0.8-0.5-1.2-1-1.6C503.1,217.9,501.2,216.7,499.1,216.2z"/>
</g>
<g>
	<path class="st3" d="M138,329.3V80.7c0-2.5,2.1-4.6,4.6-4.6H460c2.5,0,4.6,2.1,4.6,4.6v248.6c0,2.5-2.1,4.6-4.6,4.6H142.6
		C140.1,333.9,138,331.8,138,329.3z"/>
	<rect x="142" y="94" class="st8" width="318.6" height="235.8"/>
	<circle class="st8" cx="432.7" cy="85.4" r="2.9"/>
	<circle class="st8" cx="443" cy="85.4" r="2.9"/>
	<circle class="st8" cx="453.2" cy="85.4" r="2.9"/>
</g>
<linearGradient id="SVGID_3_" gradientUnits="userSpaceOnUse" x1="162.0423" y1="177.1879" x2="286.6025" y2="177.1879">
	<stop  offset="0" style="stop-color:#BCE4FD"/>
	<stop  offset="1" style="stop-color:#CEC8F8"/>
</linearGradient>
<polygon class="st12" points="162,228.6 162,125.8 286.6,125.8 286.6,228.6 "/>
<linearGradient id="SVGID_4_" gradientUnits="userSpaceOnUse" x1="293.3454" y1="177.1879" x2="440.6394" y2="177.1879">
	<stop  offset="0" style="stop-color:#AED4EF"/>
	<stop  offset="1" style="stop-color:#C8AAE6"/>
</linearGradient>
<polygon class="st13" points="293.3,228.6 293.3,125.8 440.6,125.8 440.6,228.6 "/>
<g>
	<linearGradient id="SVGID_5_" gradientUnits="userSpaceOnUse" x1="310.4041" y1="186.2197" x2="311.4041" y2="186.2197">
		<stop  offset="0" style="stop-color:#D6EFDA"/>
		<stop  offset="1" style="stop-color:#B7E0E6"/>
	</linearGradient>
	<line class="st14" x1="310.9" y1="153.1" x2="310.9" y2="219.4"/>
	<rect x="308.7" y="177.8" class="st8" width="4.3" height="9.1"/>
	<linearGradient id="SVGID_6_" gradientUnits="userSpaceOnUse" x1="329.1002" y1="186.2197" x2="330.1002" y2="186.2197">
		<stop  offset="0" style="stop-color:#D6EFDA"/>
		<stop  offset="1" style="stop-color:#B7E0E6"/>
	</linearGradient>
	<line class="st15" x1="329.6" y1="153.1" x2="329.6" y2="219.4"/>
	<rect x="327.4" y="194.7" class="st8" width="4.3" height="9.1"/>
	<linearGradient id="SVGID_7_" gradientUnits="userSpaceOnUse" x1="347.7963" y1="186.2197" x2="348.7963" y2="186.2197">
		<stop  offset="0" style="stop-color:#D6EFDA"/>
		<stop  offset="1" style="stop-color:#B7E0E6"/>
	</linearGradient>
	<line class="st16" x1="348.3" y1="153.1" x2="348.3" y2="219.4"/>
	<rect x="346.1" y="180.7" class="st8" width="4.3" height="9.1"/>
	<linearGradient id="SVGID_8_" gradientUnits="userSpaceOnUse" x1="366.4924" y1="186.2197" x2="367.4924" y2="186.2197">
		<stop  offset="0" style="stop-color:#D6EFDA"/>
		<stop  offset="1" style="stop-color:#B7E0E6"/>
	</linearGradient>
	<line class="st17" x1="367" y1="153.1" x2="367" y2="219.4"/>
	<rect x="364.8" y="156" class="st8" width="4.3" height="9.1"/>
	<linearGradient id="SVGID_9_" gradientUnits="userSpaceOnUse" x1="385.1885" y1="186.2197" x2="386.1885" y2="186.2197">
		<stop  offset="0" style="stop-color:#D6EFDA"/>
		<stop  offset="1" style="stop-color:#B7E0E6"/>
	</linearGradient>
	<line class="st18" x1="385.7" y1="153.1" x2="385.7" y2="219.4"/>
	<rect x="383.5" y="176.2" class="st8" width="4.3" height="9.1"/>
	<linearGradient id="SVGID_10_" gradientUnits="userSpaceOnUse" x1="403.8846" y1="186.2197" x2="404.8846" y2="186.2197">
		<stop  offset="0" style="stop-color:#D6EFDA"/>
		<stop  offset="1" style="stop-color:#B7E0E6"/>
	</linearGradient>
	<line class="st19" x1="404.4" y1="153.1" x2="404.4" y2="219.4"/>
	<rect x="402.2" y="162.7" class="st8" width="4.3" height="9.1"/>
	<linearGradient id="SVGID_11_" gradientUnits="userSpaceOnUse" x1="422.5807" y1="186.2197" x2="423.5807" y2="186.2197">
		<stop  offset="0" style="stop-color:#D6EFDA"/>
		<stop  offset="1" style="stop-color:#B7E0E6"/>
	</linearGradient>
	<line class="st20" x1="423.1" y1="153.1" x2="423.1" y2="219.4"/>
	<rect x="420.9" y="175.4" class="st8" width="4.3" height="9.1"/>
</g>
<line class="st21" x1="343.3" y1="136.1" x2="390.7" y2="136.1"/>
<line class="st21" x1="343.3" y1="141.5" x2="390.7" y2="141.5"/>
<line class="st21" x1="210.7" y1="136.1" x2="237.9" y2="136.1"/>
<line class="st21" x1="210.7" y1="141.5" x2="237.9" y2="141.5"/>
<g>
	<linearGradient id="SVGID_12_" gradientUnits="userSpaceOnUse" x1="162.0423" y1="274.4669" x2="440.6394" y2="274.4669">
		<stop  offset="0" style="stop-color:#A8ACFE"/>
		<stop  offset="1" style="stop-color:#C08BF8"/>
	</linearGradient>
	<polygon class="st22" points="162,313.9 162,235.1 440.6,235.1 440.6,313.9 	"/>
	<linearGradient id="SVGID_13_" gradientUnits="userSpaceOnUse" x1="158.2658" y1="290.8251" x2="190.9822" y2="258.1087">
		<stop  offset="0" style="stop-color:#A8ACFE"/>
		<stop  offset="1" style="stop-color:#C08BF8"/>
	</linearGradient>
	<line class="st23" x1="174.6" y1="242.3" x2="174.6" y2="306.7"/>
	<linearGradient id="SVGID_14_" gradientUnits="userSpaceOnUse" x1="200.5048" y1="290.8251" x2="233.2212" y2="258.1087">
		<stop  offset="0" style="stop-color:#A8ACFE"/>
		<stop  offset="1" style="stop-color:#C08BF8"/>
	</linearGradient>
	<line class="st24" x1="216.9" y1="242.3" x2="216.9" y2="306.7"/>
	<linearGradient id="SVGID_15_" gradientUnits="userSpaceOnUse" x1="242.7438" y1="290.8251" x2="275.4602" y2="258.1087">
		<stop  offset="0" style="stop-color:#A8ACFE"/>
		<stop  offset="1" style="stop-color:#C08BF8"/>
	</linearGradient>
	<line class="st25" x1="259.1" y1="242.3" x2="259.1" y2="306.7"/>
	<linearGradient id="SVGID_16_" gradientUnits="userSpaceOnUse" x1="284.9828" y1="290.8251" x2="317.6992" y2="258.1087">
		<stop  offset="0" style="stop-color:#A8ACFE"/>
		<stop  offset="1" style="stop-color:#C08BF8"/>
	</linearGradient>
	<line class="st26" x1="301.3" y1="242.3" x2="301.3" y2="306.7"/>
	<linearGradient id="SVGID_17_" gradientUnits="userSpaceOnUse" x1="327.2219" y1="290.8251" x2="359.9383" y2="258.1087">
		<stop  offset="0" style="stop-color:#A8ACFE"/>
		<stop  offset="1" style="stop-color:#C08BF8"/>
	</linearGradient>
	<line class="st27" x1="343.6" y1="242.3" x2="343.6" y2="306.7"/>
	<linearGradient id="SVGID_18_" gradientUnits="userSpaceOnUse" x1="369.4609" y1="290.8251" x2="402.1773" y2="258.1087">
		<stop  offset="0" style="stop-color:#A8ACFE"/>
		<stop  offset="1" style="stop-color:#C08BF8"/>
	</linearGradient>
	<line class="st28" x1="385.8" y1="242.3" x2="385.8" y2="306.7"/>
	<linearGradient id="SVGID_19_" gradientUnits="userSpaceOnUse" x1="411.7" y1="290.8251" x2="444.4163" y2="258.1087">
		<stop  offset="0" style="stop-color:#A8ACFE"/>
		<stop  offset="1" style="stop-color:#C08BF8"/>
	</linearGradient>
	<line class="st29" x1="428.1" y1="242.3" x2="428.1" y2="306.7"/>
	<linearGradient id="SVGID_20_" gradientUnits="userSpaceOnUse" x1="301.3409" y1="247.1197" x2="301.3409" y2="306.6833">
		<stop  offset="0" style="stop-color:#FFFFFF"/>
		<stop  offset="1" style="stop-color:#FFFFFF;stop-opacity:0"/>
	</linearGradient>
	<path class="st30" d="M428.1,247.1l-15.7,30.1c-3,5.7-10,7.8-15.6,4.6l0,0c-6.5-3.7-14.7-2.7-20.1,2.4l-6.4,6
		c-3.6,3.4-8.5,5.1-13.4,4.6l-8.7-0.8c-3-0.3-6.1,0.2-8.8,1.5h0c-9.1,4.2-19.8-0.3-23.2-9.7l-7.5-20.9c-2.6-7.2-12.7-7.4-15.6-0.4
		l-6.1,14.6c-3.6,8.6-13.9,12.1-22,7.6h0c-3.8-2.1-8.2-2.6-12.3-1.3l-2.4,0.8c-7.1,2.3-14.8-0.9-18.4-7.5l-5.4-10.1
		c-4.5-8.3-16.1-9.2-21.7-1.6l-5.4,7.2c-5.3,7-12.2,12.6-20.2,16.2l-4.5,2l0,14.2h253.1L428.1,247.1z"/>
</g>
<linearGradient id="SVGID_21_" gradientUnits="userSpaceOnUse" x1="198.5928" y1="238.4747" x2="250.052" y2="187.0155">
	<stop  offset="0" style="stop-color:#BCE4FD"/>
	<stop  offset="1" style="stop-color:#CEC8F8"/>
</linearGradient>
<rect x="174.7" y="210.9" class="st31" width="99.3" height="3.6"/>
<rect x="174.7" y="210.9" class="st8" width="86.1" height="3.6"/>
<line class="st32" x1="174.7" y1="207" x2="187.1" y2="207"/>
<line class="st32" x1="266.2" y1="207" x2="274" y2="207"/>
<linearGradient id="SVGID_22_" gradientUnits="userSpaceOnUse" x1="198.5928" y1="220.4624" x2="250.052" y2="169.0032">
	<stop  offset="0" style="stop-color:#BCE4FD"/>
	<stop  offset="1" style="stop-color:#CEC8F8"/>
</linearGradient>
<rect x="174.7" y="192.9" class="st33" width="99.3" height="3.6"/>
<rect x="174.7" y="192.9" class="st8" width="51.9" height="3.6"/>
<line class="st32" x1="174.7" y1="189" x2="187.1" y2="189"/>
<line class="st32" x1="266.2" y1="189" x2="274" y2="189"/>
<linearGradient id="SVGID_23_" gradientUnits="userSpaceOnUse" x1="198.5928" y1="202.4501" x2="250.052" y2="150.9909">
	<stop  offset="0" style="stop-color:#BCE4FD"/>
	<stop  offset="1" style="stop-color:#CEC8F8"/>
</linearGradient>
<rect x="174.7" y="174.9" class="st34" width="99.3" height="3.6"/>
<rect x="174.7" y="174.9" class="st8" width="18.4" height="3.6"/>
<line class="st32" x1="174.7" y1="171" x2="187.1" y2="171"/>
<line class="st32" x1="266.2" y1="171" x2="274" y2="171"/>
<linearGradient id="SVGID_24_" gradientUnits="userSpaceOnUse" x1="198.5928" y1="184.4378" x2="250.052" y2="132.9786">
	<stop  offset="0" style="stop-color:#BCE4FD"/>
	<stop  offset="1" style="stop-color:#CEC8F8"/>
</linearGradient>
<rect x="174.7" y="156.9" class="st35" width="99.3" height="3.6"/>
<rect x="174.7" y="156.9" class="st8" width="80.2" height="3.6"/>
<line class="st32" x1="174.7" y1="153" x2="187.1" y2="153"/>
<line class="st32" x1="266.2" y1="153" x2="274" y2="153"/>
<g>
	<g>
		<path class="st2" d="M455.2,176.4c-0.2,0.5-0.3,1-0.4,1.5c-0.5,2.2-0.7,4.4-0.7,6.7c0,2.6,0.2,5.1,0.6,7.7c-4.7,0-9.5,0-14.2,0.2
			c0.1-0.6,0.1-1.1,0.1-1.7c0.1-1.7,0-3.4-0.2-5c0-0.3-0.1-0.7-0.2-1c-0.1-0.2-0.2-0.5-0.3-0.7c-0.1-0.2-0.3-0.5-0.5-0.7
			c-0.2-0.3-0.5-0.6-0.6-0.9c-0.3-0.8-0.1-1.8,0.4-2.6c1.2-2.2,3.4-3.5,5.6-4.8c1.7-1,3.5-2.1,5.5-2.6c1.4-0.4,3.8-0.8,4.8,0.5
			C455.8,174,455.5,175.3,455.2,176.4z"/>
		<path class="st2" d="M456.2,175.1c-0.3,0.4-0.6,0.9-0.9,1.3c0,0-0.1,0.1-0.1,0.1c-0.5,0.5-1.1,1-1.7,1.4c-3.2,2.2-6.6,4-10,5.8
			c-0.5,0.3-1,0.6-1.6,0.8c-0.3,0.1-0.7,0.3-1,0.4c-0.2,0.1-0.4,0.1-0.6,0.1c-0.6,0.1-1.3,0.2-1.9,0.3c-0.7,0.1-1.5,0.2-2.2,0.2
			c-0.7,0.1-1.4,0.1-2,0c-0.3-0.1-0.7-0.2-0.9-0.3c-0.3-0.2-0.6-0.4-0.7-0.7c-0.3-0.5-0.3-1.1-0.3-1.7c0-5.8,1-11.6,2.8-17.1
			c0.7-2,1.5-3.9,3-5.4c1.8-1.8,4.6-2.7,7.3-2.7c1.7,0,3.3,0.4,4.9,1c1.1,0.4,2.4,0.9,3.4,1.5c2.2,1.4,3.7,4.5,4.1,6.9
			C458.2,169.6,457.7,172.6,456.2,175.1z"/>
		<path class="st3" d="M461,164.1c0.2,0.8,0,1.7-0.2,2.5c-1,3.3-3.1,6.1-4.5,9.2c-0.8,1.8-1.3,3.8-1.6,5.8c0,0.4-0.1,0.9-0.5,1.1
			c-0.2,0.1-0.3,0.1-0.5,0.1c-3.9,0.1-6.4,0.3-9.8-1.7c-0.8-0.5-1.7-1-2.1-1.9c-0.4-0.8-1.9-4.2-1.9-5.1c-0.1-1.6-2.7,0.7-3.7-0.5
			c-0.4-0.5,0.5-4.5,0.3-5.2c-0.4-1.5,0.3-3.1,1.6-4c0.7-0.5,1.7-0.9,1.8-1.7c0.1-0.8-0.8-1.3-1.4-1.9c-1-1.1-1-3,0-4.1
			c0.5-0.5,1.1-0.8,1.7-1.1c3.4-1.3,7.2-0.5,10.8,0.3c1.3,0.3,2.7,0.6,3.6,1.6c1.1,1.2,1.6,2.5,3.2,3.3
			C459.1,161.6,460.6,162.4,461,164.1z"/>
		<path class="st2" d="M439.4,168.7c0.6-0.1,1.2-0.1,1.6,0.3c0.4,0.4,0.5,0.9,0.5,1.5c0,1.4-0.7,2.7-1.7,3.7s-2.2,1.8-3.5,2.3
			c-0.2-0.3-0.2-0.8-0.2-1.2C436.5,172.8,436.1,169.3,439.4,168.7z"/>
		<path class="st3" d="M451.2,155.1c-3.6-1.4-7.7,0.6-11.4-0.3c-1.4-0.4-3-1.2-4.3-0.5c-0.6,0.3-1.1,0.8-1.4,1.4
			c-0.6,1.1-0.7,2.4-0.4,3.7c0.5,1.9,2,3.4,3.7,4.2c1.7,0.9,3.7,1.2,5.6,1.3c2.2,0.2,4.5,0.2,6.7,0c1.6-0.1,3.2-0.3,4.5-1.1
			c1.4-0.8,3-2.9,1.9-4.5C455,157.6,453,155.9,451.2,155.1z"/>
		<path class="st5" d="M441.9,184.4c-0.2-0.5-0.4-0.8-0.5-1.1c-0.3,0.6-0.7,1.1-1.1,1.6c0.1,0.3,0.1,0.6,0.2,0.9
			c0.2,1.7,0.3,3.3,0.2,5c1.2,0.4,2,0.1,2-1.2C442.7,187.2,442.3,185.5,441.9,184.4z"/>
	</g>
	<g>
		<path class="st2" d="M458.6,404.9c0,0,0.4,7.4,1,9.8c0.6,2.4,0.9,6.8,0.9,6.8l-12.9,0.2l0.6-3.8c0,0,3.1-1.7,3-5.5
			c-0.1-3.9-0.5-6.5-0.5-6.5L458.6,404.9z"/>
		<path class="st7" d="M461.6,427.6c0,0,0.2,1.3-0.3,1.9c0,0-5.4,0-6.4,0l-0.9-1.2c0,0-0.6-0.3-1.5,0.2c-0.9,0.5-1.2,1-2.4,1
			s-22.2,0-22.2,0l0.1-1.2l25.3-1.6L461.6,427.6z"/>
		<path class="st6" d="M460.9,417.8c0,0,1.1,6.4,0.7,9.8c0,0-4.6,0.7-8.6,0c0,0-2.3,0.7-6.5,0.7s-18.5,0-18.5,0s1.1-2.2,7.2-3.5
			c6.1-1.3,13.8-9.1,13.8-9.1s0.8-0.2,1.7,0.7c0.8,0.8,3.3,2.9,4.8,3.1C457,419.7,458.9,419.7,460.9,417.8z"/>
	</g>
	<g>
		<path class="st2" d="M432.8,407.4c0,0,2,7.2,3.1,9.4c1.1,2.2,2.4,6.4,2.4,6.4l-12.5,3l-0.2-3.8c0,0,2.7-2.3,1.8-6.1s-2-6.3-2-6.3
			L432.8,407.4z"/>
		<path class="st7" d="M440.2,429.7c0,0,0.4,1.3-0.1,1.9c0,0-5.9,0.8-6.8,0.9l-0.8-1.2c0,0-0.4-0.2-1.2,0.5c-0.8,0.6-1.1,1-2.3,1.3
			c-8.8,1.9-22.3,0.1-22.3,0.1l0.2-1.2l25.1-2.1L440.2,429.7z"/>
		<path class="st6" d="M438.2,420c0,0,1.9,6.2,2,9.7c0,0-4.5,1.3-8.5,1.1c0,0-2.1,1-6.3,1.5c-4.2,0.5-18.5-0.3-18.5-0.3
			s1.1-2.2,7.3-3.4c6.1-1.2,12.1-9.1,12.1-9.1s0.8-0.3,1.7,0.4c0.9,0.7,3.7,2.5,5.2,2.5C434.5,422.4,436.5,422.1,438.2,420z"/>
	</g>
	<path class="st8" d="M457.4,253.4c0,0,3.4,0.9,7.5,1.7c2.6,0.5,5.4,1.1,8,1.4c2.1,0.2,3.9,0.4,5.1,0.2c5.1-0.7,5.5-6.6,5.5-6.6
		s-2-32.6-2.8-38.9c-0.8-6.3-5.3-9.1-5.3-9.1l-10.9-5.7L457.4,253.4z"/>
	<path class="st36" d="M472.9,256.5c-0.5-4.6-1.1-11.7-1-15.8c0.2-6.3-0.7-19.5-0.7-19.5c-3.2,3.7-5.5,25-6.3,34
		C467.5,255.7,470.4,256.2,472.9,256.5z"/>
	<path class="st3" d="M466.4,276.2c0,0,5.2,17.8,2.6,27.3c-2.6,9.6-2.1,11.4-2.1,11.4l-6.7,46h-18.6v-55.2l3.5-28.9L466.4,276.2z"/>
	<path class="st2" d="M392.3,202.2l-16.3-23.8l-5.6,3.3c0,0,3.5,9.7,5.6,15.2c2.1,5.5,5.8,13.9,9.6,17.9c3.8,4,30.4,0,30.4,0
		L392.3,202.2z"/>
	<path class="st3" d="M423.9,418.6l13.5-4.2c0,0-13.5-48.4-13.3-61.3c0.1-4.1,24.7-47.7,25.8-52.3c0.3-1,0.4-1.6,0.4-1.6l0-0.5
		l3.5-25.3l-30.1,0.4l-18.8,70c-1.3,4.8-1.5,9.9-0.5,14.8c0.3,1.8,0.7,3.8,1.1,6C407.1,372.3,423.9,418.6,423.9,418.6z"/>
	<path class="st6" d="M466.7,272.8l0.6,4.7c0,0,0,0.5-0.5,0.6c-1,0.2-22.8,1.9-28.4,1.5c-5.6-0.4-15.8-1.8-15.8-1.8l0.8-4.9
		c0,0,12.1,1.1,20.4,1.4C452.1,274.6,466.7,272.8,466.7,272.8z"/>
	<polygon class="st3" points="466.1,279.2 464.1,279.5 463.5,272.3 465.4,272.2 	"/>
	<polygon class="st3" points="451.6,280.4 449.1,280.5 448.9,273.3 451.2,273.3 	"/>
	<polygon class="st3" points="432.3,280.3 429.8,280.1 430.4,272.9 432.7,273.2 	"/>
	<path class="st8" d="M449.7,192.1l10.7,2.6c3.4,0.8,6.6,2.6,8.9,5.3c1.3,1.6,2.4,3.5,2.7,5.7c0.7,6.3-2.7,33-3.8,46.5
		c-0.6,7.3-0.2,11.9,0.3,15.9c0.4,2.9-1.7,5.5-4.6,5.9c-6.3,0.7-16.6,1.7-22.6,1.2c-5.1-0.4-10.7-0.8-14.7-1
		c-2.9-0.2-5.1-2.7-4.7-5.6c0.8-7.1,2-18.1,1.1-22.7c-1.3-6.7-2.5-26.8-2.5-33.1c0-6.3,1.3-12.6,4.3-15.9c3-3.3,11.3-4.3,11.3-4.3
		L449.7,192.1z"/>
	<path class="st8" d="M460.2,195c0,0-1.1-3.3-2.8-6c0,0-7.4-1.8-12.6-1.2c-5.2,0.6-5.2,0.6-5.2,0.6l-3.1,5.8
		C436.6,194.3,450.9,192.4,460.2,195z"/>
	<path class="st8" d="M435.9,192.6c0,0-8.6-1.1-12.6,0.5c-4,1.6-31.1,9.1-31.1,9.1l-4,14.8c0,0,13.2,0.1,20.2,1c7,0.9,19,0,19,0
		L435.9,192.6z"/>
	<path class="st36" d="M397.2,200.1l-4.1,1.1l-1-0.5l-5.4,16c0,0,0.2,1.1,1.6,1.1s4.3,0,4.3,0s1.2-0.4,1.6-1.2
		c0.4-0.8,3.7-15.9,3.7-15.9S398.3,199.8,397.2,200.1z"/>
	<polygon class="st2" points="375.9,178.5 373.2,170.6 369.3,166 362.7,171.4 370.4,181.7 374.7,181.7 	"/>
	<path class="st2" d="M375.9,178.5c0,0,0.8-1.1,0.7-2.6c-0.1-1.5-0.4-5-0.2-6.9s1.1-5.9,1.1-5.9s-0.8-0.9-2,0.3s-2.3,7.2-2.3,7.2
		l-0.8,2C372.5,172.6,373.1,177.4,375.9,178.5z"/>
	<path class="st2" d="M370.5,167.4l-2.5-4.6l-0.7-4.1c0,0-0.7-0.4-1.2,0.5c-0.5,0.8,0,4.3,0,4.3l2.1,4.8L370.5,167.4z"/>
	<path class="st2" d="M368.6,168.6l-3-4.3l-1.2-4c0,0-0.7-0.3-1.1,0.6c-0.4,0.9,0.5,4.3,0.5,4.3l2.6,4.5L368.6,168.6z"/>
	<path class="st2" d="M367.6,170.6l-3.6-3.9l-1.7-3.8c0,0-0.8-0.2-1,0.8s1.1,4.2,1.1,4.2l3.2,4.1L367.6,170.6z"/>
	<path class="st2" d="M366.9,172.5l-3.7-2.9l-2-3.1c0,0-0.7,0-0.8,0.8c-0.1,0.9,1.5,3.6,1.5,3.6l3.4,3.2L366.9,172.5z"/>
	<path class="st3" d="M441.5,356.8c0,0-0.6,6,0.2,9.8c0.8,3.8,6.7,47.1,6.7,47.1l13.4-1.6c0,0,1-13.3,0-19.8
		c-1-6.5-1.7-31.3-1.7-31.3l-9.1-4.2H441.5z"/>
</g>
<g>
	<path class="st2" d="M115,260.9c0,0,1.6,0.4,4.8,0c3.2-0.4,14.8-2.5,14.8-2.5v-7.7l-18.1-1.6L115,260.9z"/>
	<path class="st7" d="M136.9,414.8c0,0-0.1,1.1,0.3,1.6c0,0,4.2,0,4.9,0l0.7-1c0,0,0.5-0.2,1.2,0.2c0.7,0.4,0.9,0.8,1.9,0.8
		c0.9,0,17,0,17,0l-0.1-1l-19.4-1.3L136.9,414.8z"/>
	<path class="st2" d="M162.7,415.3c0,0-5.1,0-9.4,0c0,0-15,0.1-15-0.4c-0.9-0.1-1.4-0.2-1.4-0.2c-0.2-1.5,0-3.6,0.2-5.3
		c0.1-1.2,0.3-2.2,0.3-2.5c0-0.3-0.1-0.5-0.1-0.8c-0.3-2-0.6-4.2-0.9-6.3c-0.3-1.8-0.7-3.7-1-5.5c0,0,0,0,0,0
		c-0.7-3.5-1.6-6.7-2.6-9c-0.8-1.8-1.5-3.9-2.1-6c-1.7-6.5-2.2-14-1.7-19.3c0.1-1.1,0.3-2.1,0.5-3c0.1-0.4,0.2-0.8,0.4-1.2
		c1.3-4.1,1.6-7.6,1.5-9.5c0-1-0.1-1.6-0.1-1.6l8.6-2.3l1.3-0.3l1.9,2.5l1.8,2.3c0,0.3,0.1,0.6,0.1,0.9v0.1c0,0.9,0,1.8-0.1,2.7
		c0,0.2-0.1,0.4-0.1,0.7c-0.7,4.5-2.8,9.1-2.8,9.1c-0.1,2.8-0.1,5.5-0.1,8.1c0,0.8,0,1.6,0,2.4c0,2.9,0.2,5.7,0.3,8.3
		c0.8,13,2.8,22,3.8,26c0.3-0.1,0.6-0.1,0.6-0.1s4.5,5.9,9.3,5.9c1.2,0,2.1,0.2,2.9,0.4C162.2,412.5,162.7,415.3,162.7,415.3z"/>
	<path class="st5" d="M162.7,415.3c0,0-5.1,0-9.4,0c0,0-15,0.1-15-0.4c-0.9-0.1-1.4-0.2-1.4-0.2c-0.2-1.5,0-3.6,0.2-5.3
		c0.1-1.2,0.3-2.2,0.3-2.5c0-0.3-0.1-0.5-0.1-0.8c-0.3-2-0.6-4.2-0.9-6.3c-0.3-1.8-0.7-3.7-1-5.5l6.5-23.5c0,2.9,0.2,5.7,0.3,8.3
		c0.8,13,2.8,22,3.8,26c0.3-0.1,0.6-0.1,0.6-0.1s4.5,5.9,9.3,5.9c1.2,0,2.1,0.2,2.9,0.4C162.2,412.5,162.7,415.3,162.7,415.3z"/>
	<linearGradient id="SVGID_25_" gradientUnits="userSpaceOnUse" x1="136.7928" y1="412.4302" x2="162.6707" y2="412.4302">
		<stop  offset="5.586592e-03" style="stop-color:#FFAA2E"/>
		<stop  offset="1" style="stop-color:#FF427A"/>
	</linearGradient>
	<path class="st37" d="M162.7,415.3c0,0-11,0-14.2,0c-3.3,0-5-0.6-5-0.6c-3.1,0.6-6.6,0-6.6,0c-0.2-1.5,0-3.6,0.2-5.3
		c0.9,0,2,0.2,3.2,0.7c2.5,1.1,12.9,2,15.6,1.9c1.2,0,2.2-0.4,3-0.7C162.2,412.5,162.7,415.3,162.7,415.3z"/>
	<path class="st2" d="M139.8,258.9c0,0-10.6,12.7-6,27.3c4.6,14.6,10,16.1,10,16.1l4.6,46.1l13.9-0.3c0,0,10.8-51.1,0-85.3
		L139.8,258.9z"/>
	<path class="st2" d="M129.9,261.1c0,0-9.2,18.1-7.2,33.3c2.1,15.2,9.2,40.3,8.5,50.4l10,2.2h3.6c0,0,1.8-24.4,2.8-35.5V283
		l-4.1-19.3l-2.6-2.6H129.9z"/>
	<path class="st2" d="M152.2,344.9l-3.8,3.7c0,0,1.2,4.6-1.1,9c-2.3,4.4-4.9,15.2-6,29.9c-1.2,14.7-3.8,26.2-6,29.6
		c-2.2,3.4,24.5,4.8,24.5,4.8l-9.9-8.7c0,0-2.6-4.4,0-12.7c2.6-8.3,8.8-26.7,10.2-32.3c1.4-5.6,2.8-15.7,2.8-15.7s1.6-2.7,0.1-7.6
		H152.2z"/>
	<path class="st2" d="M129.8,178.8c0-0.4,0.1-0.8,0.2-1.2c0.2-0.5,0.7-0.9,1.2-1.1c1.7-0.9,3.9-1.4,5.5-0.4c1,0.6,1.7,1.7,2.3,2.7
		c1.2,1.9,2.5,3.9,2.7,6.2c0.3,2.6-0.8,5.2-0.9,7.8c0,2.2,0.7,9.2,1.4,11.3c-3.9-0.7-7.8-0.9-11.7-1.1c-1.4-0.1-2.9-0.2-4.3-0.3
		c-1.1-0.1-2.9,0.2-3.9-0.5c-1.8-1.2,1.2-1.9,2.4-2.9C128.8,195.9,129.5,183.6,129.8,178.8z"/>
	<path class="st2" d="M124.6,167.6c1.1-3.3,3.7-6.2,6.9-7.6c1.2-0.5,2.6-0.9,3.9-0.8c3.4,0.1,6.2,2.5,8.4,5c2,2.3,3.7,4.9,4.4,7.8
		c0.5,2.1,0.4,4.2,0.3,6.4c-0.2,2.2-0.4,4.3-0.8,6.4c-0.3,2-0.9,4.2-2.7,5.2c-2,1.1-4.4,0.2-6.4-0.8
		C130.8,185.5,121.3,177.4,124.6,167.6z"/>
	<path class="st8" d="M169.2,295.1c-0.9-12.1-3.6-23.3-5.3-29.3c0,0,0,0,0,0c-0.1-0.3-0.2-0.6-0.2-0.9c-0.2-0.7-0.4-1.8-0.9-3.5
		c-0.2-0.7-0.4-1.4-0.7-2.3c-0.4-1.3-0.9-4.1-1.3-5.5c-1.1-3.6-1.9-7.5-2.1-10.7c-0.1-2.6-0.3-5.4-0.4-8.2c0-0.2,0-0.5,0-0.7
		c0-0.4,0-0.8-0.1-1.2c0-0.3,0-0.6,0-0.9c0-0.2,0-0.4,0-0.6c0-0.8-0.1-1.7-0.1-2.4c0-0.4,0-0.8-0.1-1.2c0-0.3,0-0.5,0-0.8
		c0-0.3,0-0.6,0-0.8c0-0.4,0-0.7,0-1c0-0.2,0-0.4,0-0.5c0-0.3,0-0.5,0-0.8c0-0.1,0-0.2,0-0.4c0-0.2,0-0.4,0-0.5c0-0.4,0-0.8,0-1.1
		c0-0.1,0-0.2,0-0.2c0,0,0-0.1,0-0.1c0-0.2,0-0.3,0-0.4c0-0.1,0-0.2,0-0.2s0.3-3.2-0.2-7.2c0-0.2,0-0.3-0.1-0.5
		c-0.8-5.5-3-12.1-9.5-14c-0.3-0.1-0.5-0.1-0.8-0.2c-2.1-0.4-4-0.8-5.6-1c-7.7-1-9.4,0.3-9.4,0.3s-4.6-0.5-9.1,1.2
		c-3.6,1.3-7.1,3.9-8.5,9.2c-1.8,6.8,1,13,4.2,19.7c2.5,5.2,4.6,10.8,6.1,17c1.9,7.9,2,14.3,1.7,18.3c-0.2,2.5-0.5,4-0.6,4.2
		c-2.1,5.1-4.4,12.5-4.4,19.9c0,2.8,0.4,6.4,1,10.5c0.4,2.4,0.8,4.8,1.3,7.4c2.5,13.6,6,29.7,5.1,39.5c0,0,1,0.6,2.6,1.5
		c2.5,1.3,6.5,3.2,11,4.4c0.7,0.2,1.5,0.4,2.2,0.5l0.2,0c1.4,0.3,2.7,0.5,4.1,0.5c0.8,0.1,1.7,0.1,2.5,0c1.2-0.1,2.3-0.2,3.5-0.5
		c4.7-1.3,7.4-2.2,8.8-2.9c2-1,1.9-1.4,1.9-1.4S170.6,313,169.2,295.1z"/>
	<path class="st2" d="M176.8,225.2c0,0,5.5-3.6,14.5-6.6s10.2-5.8,10.2-5.8s4.5,2.4,3.9,5.8c-0.5,3.2-12.6,12.7-23,15.9
		c-1.4,0.4-2.9-0.3-3.3-1.7L176.8,225.2z"/>
	<path class="st2" d="M198.7,215.2l4.1-6.1l3.1-0.9l2.9,3.7c0.7,0.9,1,2.1,0.8,3.3l-0.1,0.3c-0.2,1.3-1,2.4-2.2,3.1l-5.4,3.2
		L198.7,215.2z"/>
	<path class="st2" d="M149.3,198.9c0,0-4.8-0.8-4.7,4.7c0.2,5.5,2.2,12.4,12,18.5c9.8,6.1,23.3,12.5,23.3,12.5s4.8,1.5,5.6-3.1
		s-0.3-6.6-0.3-6.6s-12-7.2-19.4-14.2C158.5,203.5,153,199.2,149.3,198.9z"/>
	<path class="st7" d="M134.5,419.6c0,0-0.5,1.3-0.1,2c0,0,5.5,1.2,6.5,1.4l1.2-1c0,0,0.7-0.1,1.5,0.6s1,1.2,2.3,1.5
		c1.3,0.3,22.6,4.9,22.6,4.9l0.1-1.3l-25.5-7.3L134.5,419.6z"/>
	<linearGradient id="SVGID_26_" gradientUnits="userSpaceOnUse" x1="134.5107" y1="419.9508" x2="168.7006" y2="419.9508">
		<stop  offset="5.586592e-03" style="stop-color:#FFAA2E"/>
		<stop  offset="1" style="stop-color:#FF427A"/>
	</linearGradient>
	<path class="st38" d="M168.7,427.8c0,0-14.6-3.2-18.9-4.1c-4.3-1-6.5-2.2-6.5-2.2c-4.2-0.2-8.8-1.9-8.8-1.9c0.2-2,1.1-5,1.9-7.1
		c0,0,1.2-1,3.7,0.6c2.5,1.6,4.4,4.6,8.6,5.7c2.5,0.7,8,2,11.9,3c0.5,0.3,1.1,0.6,1.6,0.9C168.1,425.3,168.7,427.8,168.7,427.8z"/>
	<linearGradient id="SVGID_27_" gradientUnits="userSpaceOnUse" x1="111.3803" y1="259.8379" x2="165.1769" y2="206.0414">
		<stop  offset="5.586592e-03" style="stop-color:#FFAA2E"/>
		<stop  offset="1" style="stop-color:#FF427A"/>
	</linearGradient>
	<path class="st39" d="M180,234.5c0,0-0.8,0.8-2.5-0.6c-1.4-1.2-13.9-7.6-19.7-10.2c0,0.2,0,0.4,0,0.6c0,0.2,0,0.4,0,0.5
		c0,0.3,0,0.7,0,1c0,0.3,0,0.5,0,0.8c0,0.2,0,0.5,0,0.8c0,0.4,0,0.8,0.1,1.2c0,0.8,0.1,1.6,0.1,2.4c0,0.2,0,0.4,0,0.6
		c0,0.3,0,0.6,0,0.9c0,0.4,0,0.8,0.1,1.2c0,0.2,0,0.4,0,0.7c0.2,2.8,0.3,5.6,0.4,8.2c0.2,3.2,1,7.1,2.1,10.7
		c0.4,1.4,0.8,4.2,1.3,5.5c0.3,0.9,0.5,1.6,0.7,2.3c-8.3,2-20.4,4.7-26.5,4.2c-4.5-0.3-7.8-1.3-10-2.2c0.3-3.9,0.3-10.4-1.7-18.3
		c-0.4-1.7-0.9-3.3-1.4-4.9c-0.5,3.2-0.9,6.5-1.2,9.2c-0.1,0.5-0.1,1.1-0.2,1.6c0,0,0,0,0,0c-1.5,8.3-6.7,10.2-6.7,10.2
		c-6.1,0-6.1-7.5-6.1-7.5s1.3-31.1,1-40.5c-0.3-9.4,12.9-13.9,12.9-13.9c4.6-1.7,10.9-2.5,18.5-1.4c0,0,7-0.9,12.8,2.2
		c5.8,3.1,18.5,16.7,27.5,22.6C181.7,222.5,182.4,229.6,180,234.5z"/>
	<path class="st2" d="M198.7,215.2v-5.1c0,0,2-2.2,2.4-5.7c0,0,1-0.1,1.2,1.3c0.2,1.4-0.3,7-0.3,7S201.4,215.9,198.7,215.2z"/>
	<path class="st2" d="M205.5,205.9c0.4-0.2,0.9,0,1.2,0.4c0.2,0.4,0.2,0.9,0.2,1.3c-0.1,0.6-0.2,1.1-0.4,1.7
		c0.4-0.7,0.7-1.5,1.1-2.2c0.1-0.2,0.3-0.5,0.6-0.5c0.3,0,0.4,0.4,0.5,0.7c0.1,1.1-0.1,2.3-0.5,3.3c0.2-0.8,0.6-1.5,1.1-2.1
		c0.1-0.1,0.2-0.3,0.4-0.3c0.2,0,0.4,0.2,0.5,0.5c0.4,1.2-0.1,2.6-0.7,3.7c0.4-0.5,0.8-1.1,1.2-1.6c0.1-0.1,0.1-0.2,0.2-0.2
		c0.3-0.1,0.6,0.3,0.6,0.6c0.2,1.7-0.7,3.3-1.6,4.7c-0.4,0.5-0.8,1-1.4,1.2c-0.5,0.1-1,0-1.4-0.1c-1.4-0.5-2.6-1.6-3.2-2.9
		c-0.6-1.3-0.6-3.1-0.1-4.4c0.2-0.6,0.6-1,0.9-1.6C204.8,207.5,204.9,206.3,205.5,205.9z"/>
	<path class="st3" d="M141.7,161.3c-1.2-1-2.6-2-4.1-2.4c-1.8-0.6-3.8-0.4-5.6,0.2c-2.1,0.6-3.9,1.4-5.5,2.7
		c-3.5,1.7-5.9,5.1-6.2,10.3c-0.2,4.7,1.8,9.4,0.6,13.9c-0.6,2.2-1.9,4.1-2.9,6.1s-1.7,4.4-0.9,6.5c0.7,2,2.6,3.5,3.2,5.6
		c1,3.7-2.4,7.7-0.8,11.1c0.7,1.4,2.1,2.3,3.5,2.9c3.2,1.3,7,1.2,10.1-0.3s5.5-4.4,6.5-7.7c1-3.3,0.6-7,2-10.2
		c0.8-1.9,2.3-3.6,2.3-5.7c0-2.4-2-4.3-2.8-6.5c-0.8-2.3-0.2-4.9,0.6-7.3c1-2.7,2.4-5.4,3-8.2c0.1-0.4,0.1-0.8,0.2-1.1
		c0.4-0.3,0.7-0.6,1-1C149.3,166.5,144.5,163.6,141.7,161.3z"/>
	<path class="st2" d="M142,172.8c-0.3,0.1-0.5,0.3-0.7,0.5c-0.3,0.5-0.4,1.2-0.4,1.9c-0.1,1.7,0,3.6,0.8,5.1c0.6,1.1,1.6,2,2,3.2
		c0.4-2.3,1.4-4.6,1.3-6.9C144.9,175.3,143.6,172.3,142,172.8z"/>
	<linearGradient id="SVGID_28_" gradientUnits="userSpaceOnUse" x1="114.8356" y1="244.0002" x2="125.9756" y2="232.8602">
		<stop  offset="5.586592e-03" style="stop-color:#FFAA2E"/>
		<stop  offset="1" style="stop-color:#FF427A"/>
	</linearGradient>
	<path class="st40" d="M123.2,240.2c-0.5,3.2-0.9,6.5-1.2,9.2c-0.1,0.5-0.1,1.1-0.2,1.6c-0.6-9-2.7-25-2.7-25
		C121.1,230,123.2,240.2,123.2,240.2z"/>
</g>
<linearGradient id="SVGID_29_" gradientUnits="userSpaceOnUse" x1="50.8241" y1="352.3386" x2="59.886" y2="352.3386" gradientTransform="matrix(0.7071 -0.7071 0.7071 0.7071 -187.5798 119.2405)">
	<stop  offset="0" style="stop-color:#F6A9C7"/>
	<stop  offset="1" style="stop-color:#C189F7"/>
</linearGradient>
<polygon class="st41" points="107.1,329.2 100.7,335.6 94.3,329.2 100.7,322.8 "/>
<linearGradient id="SVGID_30_" gradientUnits="userSpaceOnUse" x1="126.6493" y1="219.5155" x2="143.4963" y2="219.5155" gradientTransform="matrix(0.7071 0.7071 -0.7071 0.7071 142.7798 -73.2874)">
	<stop  offset="0" style="stop-color:#D3C9FB"/>
	<stop  offset="1" style="stop-color:#B7E0E6"/>
</linearGradient>
<path class="st42" d="M89.3,173.9l-1.5,2.5c-0.4,0.6-0.4,1.4,0,2.1l1.5,2.5c1.1,1.8-1,3.8-2.7,2.7l-2.5-1.5c-0.6-0.4-1.4-0.4-2.1,0
	l-2.5,1.5c-1.8,1.1-3.8-1-2.7-2.7l1.5-2.5c0.4-0.6,0.4-1.4,0-2.1l-1.5-2.5c-1.1-1.8,1-3.8,2.7-2.7l2.5,1.5c0.6,0.4,1.4,0.4,2.1,0
	l2.5-1.5C88.4,170.1,90.4,172.2,89.3,173.9z"/>
<linearGradient id="SVGID_31_" gradientUnits="userSpaceOnUse" x1="136.2074" y1="197.2827" x2="144.4792" y2="197.2827" gradientTransform="matrix(0.7071 0.7071 -0.7071 0.7071 142.7798 -73.2874)">
	<stop  offset="0" style="stop-color:#D3C9FB"/>
	<stop  offset="1" style="stop-color:#B7E0E6"/>
</linearGradient>
<path class="st43" d="M105.6,163.7l-0.7,1.2c-0.2,0.3-0.2,0.7,0,1l0.7,1.2c0.5,0.9-0.5,1.9-1.3,1.3l-1.2-0.7c-0.3-0.2-0.7-0.2-1,0
	l-1.2,0.7c-0.9,0.5-1.9-0.5-1.3-1.3l0.7-1.2c0.2-0.3,0.2-0.7,0-1l-0.7-1.2c-0.5-0.9,0.5-1.9,1.3-1.3l1.2,0.7c0.3,0.2,0.7,0.2,1,0
	l1.2-0.7C105.1,161.8,106.1,162.9,105.6,163.7z"/>
<path class="st8" d="M179.6,380.2l-0.7,1.2c-0.2,0.3-0.2,0.7,0,1l0.7,1.2c0.5,0.9-0.5,1.9-1.3,1.3l-1.2-0.7c-0.3-0.2-0.7-0.2-1,0
	l-1.2,0.7c-0.9,0.5-1.9-0.5-1.3-1.3l0.7-1.2c0.2-0.3,0.2-0.7,0-1l-0.7-1.2c-0.5-0.9,0.5-1.9,1.3-1.3l1.2,0.7c0.3,0.2,0.7,0.2,1,0
	l1.2-0.7C179.2,378.4,180.2,379.4,179.6,380.2z"/>
<linearGradient id="SVGID_32_" gradientUnits="userSpaceOnUse" x1="475.1259" y1="115.3577" x2="481.5611" y2="115.3577">
	<stop  offset="0" style="stop-color:#D3C9FB"/>
	<stop  offset="1" style="stop-color:#B7E0E6"/>
</linearGradient>
<path class="st44" d="M481.4,113.6l-0.7,1.2c-0.2,0.3-0.2,0.7,0,1l0.7,1.2c0.5,0.9-0.5,1.9-1.3,1.3l-1.2-0.7c-0.3-0.2-0.7-0.2-1,0
	l-1.2,0.7c-0.9,0.5-1.9-0.5-1.3-1.3l0.7-1.2c0.2-0.3,0.2-0.7,0-1l-0.7-1.2c-0.5-0.9,0.5-1.9,1.3-1.3l1.2,0.7c0.3,0.2,0.7,0.2,1,0
	l1.2-0.7C480.9,111.8,481.9,112.8,481.4,113.6z"/>
<linearGradient id="SVGID_33_" gradientUnits="userSpaceOnUse" x1="487.8337" y1="129.241" x2="497.7148" y2="129.241">
	<stop  offset="0" style="stop-color:#D3C9FB"/>
	<stop  offset="1" style="stop-color:#B7E0E6"/>
</linearGradient>
<path class="st45" d="M497.5,126.6l-1.1,1.9c-0.3,0.5-0.3,1.1,0,1.6l1.1,1.9c0.8,1.3-0.7,2.9-2.1,2.1l-1.9-1.1
	c-0.5-0.3-1.1-0.3-1.6,0l-1.9,1.1c-1.3,0.8-2.9-0.7-2.1-2.1l1.1-1.9c0.3-0.5,0.3-1.1,0-1.6l-1.1-1.9c-0.8-1.3,0.7-2.9,2.1-2.1
	l1.9,1.1c0.5,0.3,1.1,0.3,1.6,0l1.9-1.1C496.8,123.7,498.3,125.2,497.5,126.6z"/>
<path class="st8" d="M198.1,386.1L197,388c-0.3,0.5-0.3,1.1,0,1.6l1.1,1.9c0.8,1.4-0.7,2.9-2.1,2.1l-1.9-1.1c-0.5-0.3-1.1-0.3-1.6,0
	l-1.9,1.1c-1.4,0.8-2.9-0.7-2.1-2.1l1.1-1.9c0.3-0.5,0.3-1.1,0-1.6l-1.1-1.9c-0.8-1.4,0.7-2.9,2.1-2.1l1.9,1.1
	c0.5,0.3,1.1,0.3,1.6,0l1.9-1.1C197.4,383.2,199,384.7,198.1,386.1z"/>
<linearGradient id="SVGID_34_" gradientUnits="userSpaceOnUse" x1="541.2138" y1="-103.2915" x2="549.4855" y2="-103.2915" gradientTransform="matrix(0.7071 0.7071 -0.7071 0.7071 142.7798 -73.2874)">
	<stop  offset="0" style="stop-color:#D3C9FB"/>
	<stop  offset="1" style="stop-color:#B7E0E6"/>
</linearGradient>
<path class="st46" d="M604.5,237.6l-0.7,1.2c-0.2,0.3-0.2,0.7,0,1l0.7,1.2c0.5,0.9-0.5,1.9-1.3,1.3l-1.2-0.7c-0.3-0.2-0.7-0.2-1,0
	l-1.2,0.7c-0.9,0.5-1.9-0.5-1.3-1.3l0.7-1.2c0.2-0.3,0.2-0.7,0-1l-0.7-1.2c-0.5-0.9,0.5-1.9,1.3-1.3l1.2,0.7c0.3,0.2,0.7,0.2,1,0
	l1.2-0.7C604,235.7,605,236.7,604.5,237.6z"/>
<linearGradient id="SVGID_35_" gradientUnits="userSpaceOnUse" x1="556.4649" y1="-92.5292" x2="572.4481" y2="-92.5292" gradientTransform="matrix(0.7071 0.7071 -0.7071 0.7071 142.7798 -73.2874)">
	<stop  offset="0" style="stop-color:#D3C9FB"/>
	<stop  offset="1" style="stop-color:#B7E0E6"/>
</linearGradient>
<path class="st47" d="M613.3,257.1l-1.4,2.3c-0.4,0.6-0.4,1.4,0,2l1.4,2.3c1,1.7-0.9,3.6-2.6,2.6l-2.3-1.4c-0.6-0.4-1.4-0.4-2,0
	l-2.3,1.4c-1.7,1-3.6-0.9-2.6-2.6l1.4-2.3c0.4-0.6,0.4-1.4,0-2l-1.4-2.3c-1-1.7,0.9-3.6,2.6-2.6l2.3,1.4c0.6,0.4,1.4,0.4,2,0
	l2.3-1.4C612.4,253.5,614.3,255.4,613.3,257.1z"/>
<g>
	<linearGradient id="SVGID_36_" gradientUnits="userSpaceOnUse" x1="547.6469" y1="318.3134" x2="619.9373" y2="318.3134">
		<stop  offset="0" style="stop-color:#ACFAFF"/>
		<stop  offset="1" style="stop-color:#71AEFF"/>
	</linearGradient>
	<circle class="st48" cx="583.8" cy="318.3" r="36.1"/>
	<path class="st49" d="M604.5,296.9c5.7,5.6,9.1,13.4,9.1,21.4"/>
	<path class="st49" d="M598,292.1c0.4,0.2,0.9,0.5,1.3,0.8"/>
</g>
<g>
	<linearGradient id="SVGID_37_" gradientUnits="userSpaceOnUse" x1="47.5409" y1="297.5135" x2="97.8386" y2="297.5135">
		<stop  offset="0" style="stop-color:#F6A9C7"/>
		<stop  offset="1" style="stop-color:#C189F7"/>
	</linearGradient>
	<circle class="st50" cx="72.7" cy="297.5" r="25.1"/>
	<path class="st49" d="M54.9,299.7c-0.1-0.7-0.1-1.4-0.1-2.2"/>
	<path class="st49" d="M72.7,315.5c-6.5,0-12.7-3.7-15.8-9.4"/>
</g>
<g>
	
		<linearGradient id="SVGID_38_" gradientUnits="userSpaceOnUse" x1="540.7574" y1="175.4996" x2="573.2026" y2="175.4996" gradientTransform="matrix(0.7071 0.7071 -0.7071 0.7071 296.4794 -353.332)">
		<stop  offset="0" style="stop-color:#4F6EEE"/>
		<stop  offset="0.9832" style="stop-color:#9E75E1"/>
	</linearGradient>
	<path class="st51" d="M577.7,153.1c-6.3-6.3-16.6-6.3-22.9,0c-6.3,6.3-6.3,16.6,0,22.9c6.3,6.3,16.6,6.3,22.9,0
		C584,169.7,584,159.5,577.7,153.1z M562.6,168.2c-2-2-2-5.3,0-7.3c2-2,5.3-2,7.3,0c2,2,2,5.3,0,7.3
		C567.9,170.2,564.6,170.2,562.6,168.2z"/>
	
		<linearGradient id="SVGID_39_" gradientUnits="userSpaceOnUse" x1="553.5045" y1="150.6585" x2="560.4557" y2="150.6585" gradientTransform="matrix(0.7071 0.7071 -0.7071 0.7071 296.4794 -353.332)">
		<stop  offset="0" style="stop-color:#4F6EEE"/>
		<stop  offset="0.9832" style="stop-color:#9E75E1"/>
	</linearGradient>
	<circle class="st52" cx="583.8" cy="147" r="3.5"/>
	<path class="st49" d="M576.2,157.3c1.5,2.1,2.3,4.6,2.3,7.2"/>
	<path class="st49" d="M572,153.5c0.2,0.1,0.4,0.2,0.5,0.3"/>
</g>
</svg>
